# Blender 4.3.0
# www.blender.org
mtllib login.mtl
o Text
v 3.800000 0.093000 0.000000
v 3.539000 0.093000 0.000000
v 3.575102 0.136478 0.000000
v 3.607481 0.176657 0.000000
v 3.636250 0.213906 0.000000
v 3.661519 0.248593 0.000000
v 3.683398 0.281085 0.000000
v 3.702000 0.311750 0.000000
v 3.717435 0.340957 0.000000
v 3.729815 0.369074 0.000000
v 3.739250 0.396469 0.000000
v 3.745852 0.423509 0.000000
v 3.749732 0.450564 0.000000
v 3.751000 0.478000 0.000000
v 3.749257 0.508660 0.000000
v 3.744134 0.537528 0.000000
v 3.735797 0.564438 0.000000
v 3.724407 0.589222 0.000000
v 3.710129 0.611715 0.000000
v 3.693125 0.631750 0.000000
v 3.673558 0.649160 0.000000
v 3.651593 0.663778 0.000000
v 3.627391 0.675438 0.000000
v 3.601116 0.683972 0.000000
v 3.572931 0.689215 0.000000
v 3.543000 0.691000 0.000000
v 3.529329 0.690561 0.000000
v 3.515796 0.689241 0.000000
v 3.502375 0.687031 0.000000
v 3.489037 0.683926 0.000000
v 3.475754 0.679918 0.000000
v 3.462500 0.675000 0.000000
v 3.449245 0.669166 0.000000
v 3.435963 0.662407 0.000000
v 3.422625 0.654719 0.000000
v 3.409204 0.646093 0.000000
v 3.395671 0.636522 0.000000
v 3.382000 0.626000 0.000000
v 3.382000 0.503000 0.000000
v 3.395648 0.519515 0.000000
v 3.409102 0.534120 0.000000
v 3.422375 0.546906 0.000000
v 3.435482 0.557963 0.000000
v 3.448436 0.567381 0.000000
v 3.461250 0.575250 0.000000
v 3.473940 0.581661 0.000000
v 3.486519 0.586704 0.000000
v 3.499000 0.590469 0.000000
v 3.511399 0.593046 0.000000
v 3.523727 0.594527 0.000000
v 3.536000 0.595000 0.000000
v 3.552377 0.593914 0.000000
v 3.567931 0.590727 0.000000
v 3.582547 0.585547 0.000000
v 3.596111 0.578481 0.000000
v 3.608509 0.569638 0.000000
v 3.619625 0.559125 0.000000
v 3.629346 0.547049 0.000000
v 3.637556 0.533518 0.000000
v 3.644141 0.518641 0.000000
v 3.648986 0.502523 0.000000
v 3.651978 0.485274 0.000000
v 3.653000 0.467000 0.000000
v 3.652670 0.453202 0.000000
v 3.651678 0.440206 0.000000
v 3.650023 0.427861 0.000000
v 3.647704 0.416016 0.000000
v 3.644717 0.404517 0.000000
v 3.641062 0.393214 0.000000
v 3.636737 0.381954 0.000000
v 3.631741 0.370587 0.000000
v 3.626070 0.358959 0.000000
v 3.619725 0.346920 0.000000
v 3.612702 0.334318 0.000000
v 3.605000 0.321000 0.000000
v 3.589585 0.295763 0.000000
v 3.572514 0.269685 0.000000
v 3.554047 0.242969 0.000000
v 3.534444 0.215815 0.000000
v 3.513967 0.188425 0.000000
v 3.492875 0.161000 0.000000
v 3.471429 0.133742 0.000000
v 3.449889 0.106852 0.000000
v 3.428515 0.080531 0.000000
v 3.407569 0.054981 0.000000
v 3.387311 0.030404 0.000000
v 3.368000 0.007000 0.000000
v 3.368000 0.000000 0.000000
v 3.800000 0.000000 0.000000
v 0.587000 0.682000 0.000000
v 0.017000 0.682000 0.000000
v 0.017000 0.594000 0.000000
v 0.253000 0.594000 0.000000
v 0.253000 0.000000 0.000000
v 0.351000 0.000000 0.000000
v 0.351000 0.594000 0.000000
v 0.587000 0.594000 0.000000
v 0.966000 0.686000 0.000000
v 0.897000 0.686000 0.000000
v 0.604000 0.000000 0.000000
v 0.704000 0.000000 0.000000
v 0.790000 0.201000 0.000000
v 1.080000 0.201000 0.000000
v 1.171000 0.000000 0.000000
v 1.271000 0.000000 0.000000
v 0.930000 0.536000 0.000000
v 1.040000 0.289000 0.000000
v 0.828000 0.289000 0.000000
v 1.346000 0.000000 0.000000
v 1.580000 0.000000 0.000000
v 1.620526 0.001977 0.000000
v 1.656708 0.007648 0.000000
v 1.688703 0.016625 0.000000
v 1.716667 0.028519 0.000000
v 1.740755 0.042940 0.000000
v 1.761125 0.059500 0.000000
v 1.777932 0.077810 0.000000
v 1.791333 0.097481 0.000000
v 1.801484 0.118125 0.000000
v 1.808542 0.139352 0.000000
v 1.812662 0.160773 0.000000
v 1.814000 0.182000 0.000000
v 1.812721 0.204466 0.000000
v 1.808935 0.225810 0.000000
v 1.802719 0.245953 0.000000
v 1.794148 0.264815 0.000000
v 1.783300 0.282315 0.000000
v 1.770250 0.298375 0.000000
v 1.755076 0.312914 0.000000
v 1.737852 0.325852 0.000000
v 1.718657 0.337109 0.000000
v 1.697565 0.346606 0.000000
v 1.674654 0.354263 0.000000
v 1.650000 0.360000 0.000000
v 1.650000 0.362000 0.000000
v 1.666961 0.369609 0.000000
v 1.682357 0.377954 0.000000
v 1.696203 0.387063 0.000000
v 1.708519 0.396963 0.000000
v 1.719320 0.407683 0.000000
v 1.728625 0.419250 0.000000
v 1.736451 0.431692 0.000000
v 1.742815 0.445037 0.000000
v 1.747735 0.459312 0.000000
v 1.751227 0.474546 0.000000
v 1.753310 0.490766 0.000000
v 1.754000 0.508000 0.000000
v 1.752676 0.529490 0.000000
v 1.748653 0.550750 0.000000
v 1.741860 0.571469 0.000000
v 1.732222 0.591333 0.000000
v 1.719669 0.610031 0.000000
v 1.704125 0.627250 0.000000
v 1.685519 0.642677 0.000000
v 1.663778 0.656000 0.000000
v 1.638828 0.666906 0.000000
v 1.610597 0.675083 0.000000
v 1.579012 0.680219 0.000000
v 1.544000 0.682000 0.000000
v 1.346000 0.682000 0.000000
v 1.444000 0.594000 0.000000
v 1.534000 0.594000 0.000000
v 1.555248 0.593105 0.000000
v 1.574065 0.590505 0.000000
v 1.590563 0.586328 0.000000
v 1.604852 0.580704 0.000000
v 1.617044 0.573760 0.000000
v 1.627250 0.565625 0.000000
v 1.635581 0.556428 0.000000
v 1.642148 0.546296 0.000000
v 1.647063 0.535359 0.000000
v 1.650435 0.523745 0.000000
v 1.652378 0.511583 0.000000
v 1.653000 0.499000 0.000000
v 1.652019 0.481520 0.000000
v 1.649070 0.465579 0.000000
v 1.644141 0.451172 0.000000
v 1.637222 0.438296 0.000000
v 1.628304 0.426948 0.000000
v 1.617375 0.417125 0.000000
v 1.604426 0.408822 0.000000
v 1.589445 0.402037 0.000000
v 1.572422 0.396766 0.000000
v 1.553347 0.393005 0.000000
v 1.532210 0.390751 0.000000
v 1.509000 0.390000 0.000000
v 1.444000 0.390000 0.000000
v 1.444000 0.302000 0.000000
v 1.562000 0.302000 0.000000
v 1.586608 0.301098 0.000000
v 1.608949 0.298454 0.000000
v 1.629047 0.294156 0.000000
v 1.646926 0.288296 0.000000
v 1.662611 0.280964 0.000000
v 1.676125 0.272250 0.000000
v 1.687494 0.262244 0.000000
v 1.696741 0.251037 0.000000
v 1.703891 0.238719 0.000000
v 1.708968 0.225380 0.000000
v 1.711996 0.211110 0.000000
v 1.713000 0.196000 0.000000
v 1.712324 0.183161 0.000000
v 1.710171 0.170292 0.000000
v 1.706360 0.157609 0.000000
v 1.700704 0.145333 0.000000
v 1.693020 0.133682 0.000000
v 1.683125 0.122875 0.000000
v 1.670834 0.113130 0.000000
v 1.655963 0.104667 0.000000
v 1.638328 0.097703 0.000000
v 1.617746 0.092458 0.000000
v 1.594031 0.089151 0.000000
v 1.567000 0.088000 0.000000
v 1.444000 0.088000 0.000000
v 2.304000 0.341000 0.000000
v 2.302192 0.392001 0.000000
v 2.296870 0.439843 0.000000
v 2.288188 0.484281 0.000000
v 2.276296 0.525074 0.000000
v 2.261350 0.561978 0.000000
v 2.243500 0.594750 0.000000
v 2.222901 0.623147 0.000000
v 2.199704 0.646926 0.000000
v 2.174063 0.665844 0.000000
v 2.146130 0.679658 0.000000
v 2.116058 0.688124 0.000000
v 2.084000 0.691000 0.000000
v 2.051942 0.688124 0.000000
v 2.021871 0.679657 0.000000
v 1.993938 0.665844 0.000000
v 1.968297 0.646926 0.000000
v 1.945100 0.623147 0.000000
v 1.924500 0.594750 0.000000
v 1.906651 0.561978 0.000000
v 1.891704 0.525074 0.000000
v 1.879813 0.484281 0.000000
v 1.871130 0.439843 0.000000
v 1.865808 0.392001 0.000000
v 1.864000 0.341000 0.000000
v 1.865808 0.289999 0.000000
v 1.871130 0.242157 0.000000
v 1.879813 0.197719 0.000000
v 1.891704 0.156926 0.000000
v 1.906651 0.120022 0.000000
v 1.924500 0.087250 0.000000
v 1.945100 0.058853 0.000000
v 1.968297 0.035074 0.000000
v 1.993938 0.016156 0.000000
v 2.021871 0.002343 0.000000
v 2.051942 -0.006124 -0.000000
v 2.084000 -0.009000 -0.000000
v 2.116058 -0.006124 -0.000000
v 2.146130 0.002343 0.000000
v 2.174062 0.016156 0.000000
v 2.199704 0.035074 0.000000
v 2.222900 0.058853 0.000000
v 2.243500 0.087250 0.000000
v 2.261349 0.120022 0.000000
v 2.276296 0.156926 0.000000
v 2.288187 0.197719 0.000000
v 2.296870 0.242157 0.000000
v 2.302192 0.289999 0.000000
v 2.206000 0.341000 0.000000
v 2.205051 0.302332 0.000000
v 2.202241 0.266407 0.000000
v 2.197625 0.233344 0.000000
v 2.191259 0.203259 0.000000
v 2.183199 0.176272 0.000000
v 2.173500 0.152500 0.000000
v 2.162217 0.132061 0.000000
v 2.149407 0.115074 0.000000
v 2.135125 0.101656 0.000000
v 2.119426 0.091926 0.000000
v 2.102365 0.086001 0.000000
v 2.084000 0.084000 0.000000
v 2.065634 0.086001 0.000000
v 2.048574 0.091926 0.000000
v 2.032875 0.101656 0.000000
v 2.018593 0.115074 0.000000
v 2.005782 0.132061 0.000000
v 1.994500 0.152500 0.000000
v 1.984801 0.176272 0.000000
v 1.976741 0.203259 0.000000
v 1.970375 0.233344 0.000000
v 1.965759 0.266407 0.000000
v 1.962949 0.302332 0.000000
v 1.962000 0.341000 0.000000
v 1.962949 0.379668 0.000000
v 1.965759 0.415593 0.000000
v 1.970375 0.448656 0.000000
v 1.976741 0.478741 0.000000
v 1.984801 0.505728 0.000000
v 1.994500 0.529500 0.000000
v 2.005783 0.549939 0.000000
v 2.018593 0.566926 0.000000
v 2.032875 0.580344 0.000000
v 2.048574 0.590074 0.000000
v 2.065635 0.595999 0.000000
v 2.084000 0.598000 0.000000
v 2.102366 0.595999 0.000000
v 2.119426 0.590074 0.000000
v 2.135125 0.580344 0.000000
v 2.149408 0.566926 0.000000
v 2.162218 0.549939 0.000000
v 2.173500 0.529500 0.000000
v 2.183199 0.505728 0.000000
v 2.191260 0.478741 0.000000
v 2.197625 0.448656 0.000000
v 2.202241 0.415593 0.000000
v 2.205051 0.379668 0.000000
v 2.804000 0.341000 0.000000
v 2.802192 0.392001 0.000000
v 2.796870 0.439843 0.000000
v 2.788188 0.484281 0.000000
v 2.776296 0.525074 0.000000
v 2.761350 0.561978 0.000000
v 2.743500 0.594750 0.000000
v 2.722901 0.623147 0.000000
v 2.699704 0.646926 0.000000
v 2.674063 0.665844 0.000000
v 2.646130 0.679658 0.000000
v 2.616058 0.688124 0.000000
v 2.584000 0.691000 0.000000
v 2.551942 0.688124 0.000000
v 2.521871 0.679657 0.000000
v 2.493938 0.665844 0.000000
v 2.468297 0.646926 0.000000
v 2.445100 0.623147 0.000000
v 2.424500 0.594750 0.000000
v 2.406651 0.561978 0.000000
v 2.391704 0.525074 0.000000
v 2.379813 0.484281 0.000000
v 2.371130 0.439843 0.000000
v 2.365808 0.392001 0.000000
v 2.364000 0.341000 0.000000
v 2.365808 0.289999 0.000000
v 2.371130 0.242157 0.000000
v 2.379813 0.197719 0.000000
v 2.391704 0.156926 0.000000
v 2.406651 0.120022 0.000000
v 2.424500 0.087250 0.000000
v 2.445100 0.058853 0.000000
v 2.468296 0.035074 0.000000
v 2.493937 0.016156 0.000000
v 2.521870 0.002343 0.000000
v 2.551942 -0.006124 -0.000000
v 2.584000 -0.009000 -0.000000
v 2.616058 -0.006124 -0.000000
v 2.646130 0.002343 0.000000
v 2.674062 0.016156 0.000000
v 2.699704 0.035074 0.000000
v 2.722900 0.058853 0.000000
v 2.743500 0.087250 0.000000
v 2.761349 0.120022 0.000000
v 2.776296 0.156926 0.000000
v 2.788187 0.197719 0.000000
v 2.796870 0.242157 0.000000
v 2.802192 0.289999 0.000000
v 2.706000 0.341000 0.000000
v 2.705051 0.302332 0.000000
v 2.702241 0.266407 0.000000
v 2.697625 0.233344 0.000000
v 2.691259 0.203259 0.000000
v 2.683199 0.176272 0.000000
v 2.673500 0.152500 0.000000
v 2.662217 0.132061 0.000000
v 2.649407 0.115074 0.000000
v 2.635125 0.101656 0.000000
v 2.619426 0.091926 0.000000
v 2.602365 0.086001 0.000000
v 2.584000 0.084000 0.000000
v 2.565634 0.086001 0.000000
v 2.548574 0.091926 0.000000
v 2.532875 0.101656 0.000000
v 2.518593 0.115074 0.000000
v 2.505782 0.132061 0.000000
v 2.494500 0.152500 0.000000
v 2.484801 0.176272 0.000000
v 2.476741 0.203259 0.000000
v 2.470375 0.233344 0.000000
v 2.465759 0.266407 0.000000
v 2.462949 0.302332 0.000000
v 2.462000 0.341000 0.000000
v 2.462949 0.379668 0.000000
v 2.465760 0.415593 0.000000
v 2.470375 0.448656 0.000000
v 2.476741 0.478741 0.000000
v 2.484801 0.505728 0.000000
v 2.494500 0.529500 0.000000
v 2.505783 0.549939 0.000000
v 2.518593 0.566926 0.000000
v 2.532876 0.580344 0.000000
v 2.548575 0.590074 0.000000
v 2.565635 0.595999 0.000000
v 2.584000 0.598000 0.000000
v 2.602366 0.595999 0.000000
v 2.619426 0.590074 0.000000
v 2.635125 0.580344 0.000000
v 2.649408 0.566926 0.000000
v 2.662218 0.549939 0.000000
v 2.673500 0.529500 0.000000
v 2.683199 0.505728 0.000000
v 2.691260 0.478741 0.000000
v 2.697625 0.448656 0.000000
v 2.702241 0.415593 0.000000
v 2.705051 0.379668 0.000000
v 3.232000 0.691000 0.000000
v 3.190000 0.691000 0.000000
v 2.845000 0.269000 0.000000
v 2.845000 0.224000 0.000000
v 3.134000 0.224000 0.000000
v 3.134000 0.000000 0.000000
v 3.232000 0.000000 0.000000
v 3.232000 0.224000 0.000000
v 3.305000 0.224000 0.000000
v 3.305000 0.312000 0.000000
v 3.232000 0.312000 0.000000
v 3.132000 0.506000 0.000000
v 3.134000 0.506000 0.000000
v 3.134000 0.312000 0.000000
v 2.976000 0.312000 0.000000
v 3.800000 0.093000 0.412483
v 3.539000 0.093000 0.412483
v 3.575102 0.136478 0.412483
v 3.607481 0.176657 0.412483
v 3.636250 0.213906 0.412483
v 3.661519 0.248593 0.412483
v 3.683398 0.281085 0.412483
v 3.702000 0.311750 0.412483
v 3.717435 0.340957 0.412483
v 3.729815 0.369074 0.412483
v 3.739250 0.396469 0.412483
v 3.745852 0.423509 0.412483
v 3.749732 0.450564 0.412483
v 3.751000 0.478000 0.412483
v 3.749257 0.508660 0.412483
v 3.744134 0.537528 0.412483
v 3.735797 0.564438 0.412483
v 3.724407 0.589222 0.412483
v 3.710129 0.611715 0.412483
v 3.693125 0.631750 0.412483
v 3.673558 0.649160 0.412483
v 3.651593 0.663778 0.412483
v 3.627391 0.675438 0.412483
v 3.601116 0.683972 0.412483
v 3.572931 0.689215 0.412483
v 3.543000 0.691000 0.412483
v 3.529329 0.690561 0.412483
v 3.515796 0.689241 0.412483
v 3.502375 0.687031 0.412483
v 3.489037 0.683926 0.412483
v 3.475754 0.679918 0.412483
v 3.462500 0.675000 0.412483
v 3.449245 0.669166 0.412483
v 3.435963 0.662407 0.412483
v 3.422625 0.654719 0.412483
v 3.409204 0.646093 0.412483
v 3.395671 0.636522 0.412483
v 3.382000 0.626000 0.412483
v 3.382000 0.503000 0.412483
v 3.395648 0.519515 0.412483
v 3.409102 0.534120 0.412483
v 3.422375 0.546906 0.412483
v 3.435482 0.557963 0.412483
v 3.448436 0.567381 0.412483
v 3.461250 0.575250 0.412483
v 3.473940 0.581661 0.412483
v 3.486519 0.586704 0.412483
v 3.499000 0.590469 0.412483
v 3.511399 0.593046 0.412483
v 3.523727 0.594527 0.412483
v 3.536000 0.595000 0.412483
v 3.552377 0.593914 0.412483
v 3.567931 0.590727 0.412483
v 3.582547 0.585547 0.412483
v 3.596111 0.578481 0.412483
v 3.608509 0.569638 0.412483
v 3.619625 0.559125 0.412483
v 3.629346 0.547049 0.412483
v 3.637556 0.533518 0.412483
v 3.644141 0.518641 0.412483
v 3.648986 0.502523 0.412483
v 3.651978 0.485274 0.412483
v 3.653000 0.467000 0.412483
v 3.652670 0.453202 0.412483
v 3.651678 0.440206 0.412483
v 3.650023 0.427861 0.412483
v 3.647704 0.416016 0.412483
v 3.644717 0.404517 0.412483
v 3.641062 0.393214 0.412483
v 3.636737 0.381954 0.412483
v 3.631741 0.370587 0.412483
v 3.626070 0.358959 0.412483
v 3.619725 0.346920 0.412483
v 3.612702 0.334318 0.412483
v 3.605000 0.321000 0.412483
v 3.589585 0.295763 0.412483
v 3.572514 0.269685 0.412483
v 3.554047 0.242969 0.412483
v 3.534444 0.215815 0.412483
v 3.513967 0.188425 0.412483
v 3.492875 0.161000 0.412483
v 3.471429 0.133742 0.412483
v 3.449889 0.106852 0.412483
v 3.428515 0.080531 0.412483
v 3.407569 0.054981 0.412483
v 3.387311 0.030404 0.412483
v 3.368000 0.007000 0.412483
v 3.368000 -0.000000 0.412483
v 3.800000 -0.000000 0.412483
v 0.587000 0.682000 0.412483
v 0.017000 0.682000 0.412483
v 0.017000 0.594000 0.412483
v 0.253000 0.594000 0.412483
v 0.253000 -0.000000 0.412483
v 0.351000 -0.000000 0.412483
v 0.351000 0.594000 0.412483
v 0.587000 0.594000 0.412483
v 0.966000 0.686000 0.412483
v 0.897000 0.686000 0.412483
v 0.604000 -0.000000 0.412483
v 0.704000 -0.000000 0.412483
v 0.790000 0.201000 0.412483
v 1.080000 0.201000 0.412483
v 1.171000 -0.000000 0.412483
v 1.271000 -0.000000 0.412483
v 0.930000 0.536000 0.412483
v 1.040000 0.289000 0.412483
v 0.828000 0.289000 0.412483
v 1.346000 -0.000000 0.412483
v 1.580000 -0.000000 0.412483
v 1.620526 0.001977 0.412483
v 1.656708 0.007648 0.412483
v 1.688703 0.016625 0.412483
v 1.716667 0.028519 0.412483
v 1.740755 0.042940 0.412483
v 1.761125 0.059500 0.412483
v 1.777932 0.077810 0.412483
v 1.791333 0.097481 0.412483
v 1.801484 0.118125 0.412483
v 1.808542 0.139352 0.412483
v 1.812662 0.160773 0.412483
v 1.814000 0.182000 0.412483
v 1.812721 0.204466 0.412483
v 1.808935 0.225810 0.412483
v 1.802719 0.245953 0.412483
v 1.794148 0.264815 0.412483
v 1.783300 0.282315 0.412483
v 1.770250 0.298375 0.412483
v 1.755076 0.312914 0.412483
v 1.737852 0.325852 0.412483
v 1.718657 0.337109 0.412483
v 1.697565 0.346606 0.412483
v 1.674654 0.354263 0.412483
v 1.650000 0.360000 0.412483
v 1.650000 0.362000 0.412483
v 1.666961 0.369609 0.412483
v 1.682357 0.377954 0.412483
v 1.696203 0.387062 0.412483
v 1.708519 0.396963 0.412483
v 1.719320 0.407683 0.412483
v 1.728625 0.419250 0.412483
v 1.736451 0.431692 0.412483
v 1.742815 0.445037 0.412483
v 1.747735 0.459312 0.412483
v 1.751227 0.474546 0.412483
v 1.753310 0.490766 0.412483
v 1.754000 0.508000 0.412483
v 1.752676 0.529490 0.412483
v 1.748653 0.550750 0.412483
v 1.741860 0.571469 0.412483
v 1.732222 0.591333 0.412483
v 1.719669 0.610031 0.412483
v 1.704125 0.627250 0.412483
v 1.685519 0.642677 0.412483
v 1.663778 0.656000 0.412483
v 1.638828 0.666906 0.412483
v 1.610597 0.675083 0.412483
v 1.579012 0.680219 0.412483
v 1.544000 0.682000 0.412483
v 1.346000 0.682000 0.412483
v 1.444000 0.594000 0.412483
v 1.534000 0.594000 0.412483
v 1.555248 0.593105 0.412483
v 1.574065 0.590505 0.412483
v 1.590563 0.586328 0.412483
v 1.604852 0.580704 0.412483
v 1.617044 0.573760 0.412483
v 1.627250 0.565625 0.412483
v 1.635581 0.556428 0.412483
v 1.642148 0.546296 0.412483
v 1.647063 0.535359 0.412483
v 1.650435 0.523745 0.412483
v 1.652378 0.511583 0.412483
v 1.653000 0.499000 0.412483
v 1.652019 0.481520 0.412483
v 1.649070 0.465579 0.412483
v 1.644141 0.451172 0.412483
v 1.637222 0.438296 0.412483
v 1.628304 0.426948 0.412483
v 1.617375 0.417125 0.412483
v 1.604426 0.408822 0.412483
v 1.589445 0.402037 0.412483
v 1.572422 0.396766 0.412483
v 1.553347 0.393005 0.412483
v 1.532210 0.390751 0.412483
v 1.509000 0.390000 0.412483
v 1.444000 0.390000 0.412483
v 1.444000 0.302000 0.412483
v 1.562000 0.302000 0.412483
v 1.586608 0.301098 0.412483
v 1.608949 0.298454 0.412483
v 1.629047 0.294156 0.412483
v 1.646926 0.288296 0.412483
v 1.662611 0.280964 0.412483
v 1.676125 0.272250 0.412483
v 1.687494 0.262244 0.412483
v 1.696741 0.251037 0.412483
v 1.703891 0.238719 0.412483
v 1.708968 0.225380 0.412483
v 1.711996 0.211110 0.412483
v 1.713000 0.196000 0.412483
v 1.712324 0.183161 0.412483
v 1.710171 0.170292 0.412483
v 1.706360 0.157609 0.412483
v 1.700704 0.145333 0.412483
v 1.693020 0.133682 0.412483
v 1.683125 0.122875 0.412483
v 1.670834 0.113130 0.412483
v 1.655963 0.104667 0.412483
v 1.638328 0.097703 0.412483
v 1.617746 0.092458 0.412483
v 1.594031 0.089151 0.412483
v 1.567000 0.088000 0.412483
v 1.444000 0.088000 0.412483
v 2.304000 0.341000 0.412483
v 2.302192 0.392001 0.412483
v 2.296870 0.439843 0.412483
v 2.288188 0.484281 0.412483
v 2.276296 0.525074 0.412483
v 2.261350 0.561978 0.412483
v 2.243500 0.594750 0.412483
v 2.222901 0.623147 0.412483
v 2.199704 0.646926 0.412483
v 2.174063 0.665844 0.412483
v 2.146130 0.679658 0.412483
v 2.116058 0.688124 0.412483
v 2.084000 0.691000 0.412483
v 2.051942 0.688124 0.412483
v 2.021871 0.679657 0.412483
v 1.993938 0.665844 0.412483
v 1.968297 0.646926 0.412483
v 1.945100 0.623147 0.412483
v 1.924500 0.594750 0.412483
v 1.906651 0.561978 0.412483
v 1.891704 0.525074 0.412483
v 1.879813 0.484281 0.412483
v 1.871130 0.439843 0.412483
v 1.865808 0.392001 0.412483
v 1.864000 0.341000 0.412483
v 1.865808 0.289999 0.412483
v 1.871130 0.242157 0.412483
v 1.879813 0.197719 0.412483
v 1.891704 0.156926 0.412483
v 1.906651 0.120022 0.412483
v 1.924500 0.087250 0.412483
v 1.945100 0.058853 0.412483
v 1.968297 0.035074 0.412483
v 1.993938 0.016156 0.412483
v 2.021871 0.002343 0.412483
v 2.051942 -0.006124 0.412483
v 2.084000 -0.009000 0.412483
v 2.116058 -0.006124 0.412483
v 2.146130 0.002343 0.412483
v 2.174062 0.016156 0.412483
v 2.199704 0.035074 0.412483
v 2.222900 0.058853 0.412483
v 2.243500 0.087250 0.412483
v 2.261349 0.120022 0.412483
v 2.276296 0.156926 0.412483
v 2.288187 0.197719 0.412483
v 2.296870 0.242157 0.412483
v 2.302192 0.289999 0.412483
v 2.206000 0.341000 0.412483
v 2.205051 0.302332 0.412483
v 2.202241 0.266407 0.412483
v 2.197625 0.233344 0.412483
v 2.191259 0.203259 0.412483
v 2.183199 0.176272 0.412483
v 2.173500 0.152500 0.412483
v 2.162217 0.132061 0.412483
v 2.149407 0.115074 0.412483
v 2.135125 0.101656 0.412483
v 2.119426 0.091926 0.412483
v 2.102365 0.086001 0.412483
v 2.084000 0.084000 0.412483
v 2.065634 0.086001 0.412483
v 2.048574 0.091926 0.412483
v 2.032875 0.101656 0.412483
v 2.018593 0.115074 0.412483
v 2.005782 0.132061 0.412483
v 1.994500 0.152500 0.412483
v 1.984801 0.176272 0.412483
v 1.976741 0.203259 0.412483
v 1.970375 0.233344 0.412483
v 1.965759 0.266407 0.412483
v 1.962949 0.302332 0.412483
v 1.962000 0.341000 0.412483
v 1.962949 0.379668 0.412483
v 1.965759 0.415593 0.412483
v 1.970375 0.448656 0.412483
v 1.976741 0.478741 0.412483
v 1.984801 0.505728 0.412483
v 1.994500 0.529500 0.412483
v 2.005783 0.549939 0.412483
v 2.018593 0.566926 0.412483
v 2.032875 0.580344 0.412483
v 2.048574 0.590074 0.412483
v 2.065635 0.595999 0.412483
v 2.084000 0.598000 0.412483
v 2.102366 0.595999 0.412483
v 2.119426 0.590074 0.412483
v 2.135125 0.580344 0.412483
v 2.149408 0.566926 0.412483
v 2.162218 0.549939 0.412483
v 2.173500 0.529500 0.412483
v 2.183199 0.505728 0.412483
v 2.191260 0.478741 0.412483
v 2.197625 0.448656 0.412483
v 2.202241 0.415593 0.412483
v 2.205051 0.379668 0.412483
v 2.804000 0.341000 0.412483
v 2.802192 0.392001 0.412483
v 2.796870 0.439843 0.412483
v 2.788188 0.484281 0.412483
v 2.776296 0.525074 0.412483
v 2.761350 0.561978 0.412483
v 2.743500 0.594750 0.412483
v 2.722901 0.623147 0.412483
v 2.699704 0.646926 0.412483
v 2.674063 0.665844 0.412483
v 2.646130 0.679658 0.412483
v 2.616058 0.688124 0.412483
v 2.584000 0.691000 0.412483
v 2.551942 0.688124 0.412483
v 2.521871 0.679657 0.412483
v 2.493938 0.665844 0.412483
v 2.468297 0.646926 0.412483
v 2.445100 0.623147 0.412483
v 2.424500 0.594750 0.412483
v 2.406651 0.561978 0.412483
v 2.391704 0.525074 0.412483
v 2.379813 0.484281 0.412483
v 2.371130 0.439843 0.412483
v 2.365808 0.392001 0.412483
v 2.364000 0.341000 0.412483
v 2.365808 0.289999 0.412483
v 2.371130 0.242157 0.412483
v 2.379813 0.197719 0.412483
v 2.391704 0.156926 0.412483
v 2.406651 0.120022 0.412483
v 2.424500 0.087250 0.412483
v 2.445100 0.058853 0.412483
v 2.468296 0.035074 0.412483
v 2.493937 0.016156 0.412483
v 2.521870 0.002343 0.412483
v 2.551942 -0.006124 0.412483
v 2.584000 -0.009000 0.412483
v 2.616058 -0.006124 0.412483
v 2.646130 0.002343 0.412483
v 2.674062 0.016156 0.412483
v 2.699704 0.035074 0.412483
v 2.722900 0.058853 0.412483
v 2.743500 0.087250 0.412483
v 2.761349 0.120022 0.412483
v 2.776296 0.156926 0.412483
v 2.788187 0.197719 0.412483
v 2.796870 0.242157 0.412483
v 2.802192 0.289999 0.412483
v 2.706000 0.341000 0.412483
v 2.705051 0.302332 0.412483
v 2.702241 0.266407 0.412483
v 2.697625 0.233344 0.412483
v 2.691259 0.203259 0.412483
v 2.683199 0.176272 0.412483
v 2.673500 0.152500 0.412483
v 2.662217 0.132061 0.412483
v 2.649407 0.115074 0.412483
v 2.635125 0.101656 0.412483
v 2.619426 0.091926 0.412483
v 2.602365 0.086001 0.412483
v 2.584000 0.084000 0.412483
v 2.565634 0.086001 0.412483
v 2.548574 0.091926 0.412483
v 2.532875 0.101656 0.412483
v 2.518593 0.115074 0.412483
v 2.505782 0.132061 0.412483
v 2.494500 0.152500 0.412483
v 2.484801 0.176272 0.412483
v 2.476741 0.203259 0.412483
v 2.470375 0.233344 0.412483
v 2.465759 0.266407 0.412483
v 2.462949 0.302332 0.412483
v 2.462000 0.341000 0.412483
v 2.462949 0.379668 0.412483
v 2.465760 0.415593 0.412483
v 2.470375 0.448656 0.412483
v 2.476741 0.478741 0.412483
v 2.484801 0.505728 0.412483
v 2.494500 0.529500 0.412483
v 2.505783 0.549939 0.412483
v 2.518593 0.566926 0.412483
v 2.532876 0.580344 0.412483
v 2.548575 0.590074 0.412483
v 2.565635 0.595999 0.412483
v 2.584000 0.598000 0.412483
v 2.602366 0.595999 0.412483
v 2.619426 0.590074 0.412483
v 2.635125 0.580344 0.412483
v 2.649408 0.566926 0.412483
v 2.662218 0.549939 0.412483
v 2.673500 0.529500 0.412483
v 2.683199 0.505728 0.412483
v 2.691260 0.478741 0.412483
v 2.697625 0.448656 0.412483
v 2.702241 0.415593 0.412483
v 2.705051 0.379668 0.412483
v 3.232000 0.691000 0.412483
v 3.190000 0.691000 0.412483
v 2.845000 0.269000 0.412483
v 2.845000 0.224000 0.412483
v 3.134000 0.224000 0.412483
v 3.134000 -0.000000 0.412483
v 3.232000 -0.000000 0.412483
v 3.232000 0.224000 0.412483
v 3.305000 0.224000 0.412483
v 3.305000 0.312000 0.412483
v 3.232000 0.312000 0.412483
v 3.132000 0.506000 0.412483
v 3.134000 0.506000 0.412483
v 3.134000 0.312000 0.412483
v 2.976000 0.312000 0.412483
vn -0.0000 -0.0000 -1.0000
vn -0.0000 -0.0000 1.0000
vn -0.8108 0.5853 -0.0000
vn -0.3281 0.9447 -0.0000
vn 0.7984 0.6021 -0.0000
vn 0.9846 0.1746 -0.0000
vn -0.8009 0.5988 -0.0000
vn -0.8782 -0.4783 -0.0000
vn -0.9782 -0.2076 -0.0000
vn 0.3281 0.9447 -0.0000
vn -0.8095 -0.5872 -0.0000
vn -0.9978 -0.0663 -0.0000
vn 0.7914 -0.6112 -0.0000
vn 0.8782 -0.4783 -0.0000
vn -0.7927 0.6096 -0.0000
vn -0.6847 0.7288 -0.0000
vn 0.8095 -0.5872 -0.0000
vn 0.9984 0.0568 -0.0000
vn -0.1083 0.9941 -0.0000
vn -0.9986 0.0526 -0.0000
vn 0.7786 -0.6275 -0.0000
vn 0.6847 0.7288 -0.0000
vn -0.7859 0.6183 -0.0000
vn -0.5268 0.8500 -0.0000
vn -0.9863 0.1649 -0.0000
vn 0.1083 0.9941 -0.0000
vn 0.7694 -0.6388 -0.0000
vn -0.7158 -0.6983 -0.0000
vn 0.5268 0.8500 -0.0000
vn 0.9980 -0.0629 -0.0000
vn -0.7805 0.6252 -0.0000
vn -0.9577 0.2879 -0.0000
vn -1.0000 -0.0000 -0.0000
vn -0.7763 0.6304 -0.0000
vn 0.7158 -0.6983 -0.0000
vn -0.5937 -0.8047 -0.0000
vn 0.9820 -0.1889 -0.0000
vn -0.0000 1.0000 -0.0000
vn -0.9082 0.4184 -0.0000
vn 1.0000 -0.0000 -0.0000
vn 0.5937 -0.8047 -0.0000
vn -0.8348 0.5505 -0.0000
vn -0.0000 -1.0000 -0.0000
vn -0.4433 -0.8964 -0.0000
vn -0.7733 0.6340 -0.0000
vn 0.9489 -0.3155 -0.0000
vn -0.7716 0.6360 -0.0000
vn 0.4433 -0.8964 -0.0000
vn -0.7375 0.6753 -0.0000
vn -0.2710 -0.9626 -0.0000
vn -0.7713 0.6364 -0.0000
vn -0.6213 0.7836 -0.0000
vn 0.2710 -0.9626 -0.0000
vn -0.9196 0.3928 -0.0000
vn -0.0894 -0.9960 -0.0000
vn 0.8974 -0.4413 -0.0000
vn 0.0894 -0.9960 -0.0000
vn -0.4946 0.8691 -0.0000
vn -0.7742 0.6329 -0.0000
vn -0.3673 0.9301 -0.0000
vn -0.2469 0.9690 -0.0000
vn 0.9138 0.4063 -0.0000
vn 0.9243 -0.3817 -0.0000
vn 0.8264 -0.5630 -0.0000
vn -0.9135 -0.4068 -0.0000
vn -0.1381 0.9904 -0.0000
vn -0.0425 0.9991 -0.0000
vn 0.7793 -0.6267 -0.0000
vn -0.0894 0.9960 -0.0000
vn 0.7367 -0.6762 -0.0000
vn 0.0894 0.9960 -0.0000
vn 0.9194 -0.3934 -0.0000
vn 0.6308 -0.7759 -0.0000
vn -0.9110 -0.4124 -0.0000
vn 0.2710 0.9626 -0.0000
vn -0.2710 0.9626 -0.0000
vn 0.5137 -0.8580 -0.0000
vn 0.3914 -0.9202 -0.0000
vn 0.4433 0.8964 -0.0000
vn -0.4433 0.8964 -0.0000
vn 0.2701 -0.9628 -0.0000
vn 0.1549 -0.9879 -0.0000
vn 0.0508 0.9987 -0.0000
vn 0.5937 0.8047 -0.0000
vn -0.5937 0.8047 -0.0000
vn 0.0487 -0.9988 -0.0000
vn 0.1605 0.9870 -0.0000
vn -0.7158 0.6983 -0.0000
vn 0.2782 0.9605 -0.0000
vn -0.0321 0.9995 -0.0000
vn 0.4005 0.9163 -0.0000
vn 0.0595 0.9982 -0.0000
vn 0.7158 0.6983 -0.0000
vn -0.0971 0.9953 -0.0000
vn -0.8095 0.5872 -0.0000
vn 0.5225 0.8526 -0.0000
vn -0.1624 0.9867 -0.0000
vn 0.6383 0.7698 -0.0000
vn 0.7423 0.6701 -0.0000
vn 0.1829 0.9831 -0.0000
vn 0.8095 0.5872 -0.0000
vn -0.2268 0.9740 -0.0000
vn 0.1083 -0.9941 -0.0000
vn -0.1083 -0.9941 -0.0000
vn 0.8302 0.5574 -0.0000
vn 0.3089 0.9511 -0.0000
vn -0.2889 0.9574 -0.0000
vn 0.3281 -0.9447 -0.0000
vn -0.0421 -0.9991 -0.0000
vn -0.3479 0.9375 -0.0000
vn -0.3281 -0.9447 -0.0000
vn -0.1369 -0.9906 -0.0000
vn -0.8782 0.4783 -0.0000
vn 0.4340 0.9009 -0.0000
vn -0.4029 0.9153 -0.0000
vn 0.8997 0.4365 -0.0000
vn 0.8782 0.4783 -0.0000
vn -0.2454 -0.9694 -0.0000
vn -0.4535 0.8913 -0.0000
vn 0.5268 -0.8500 -0.0000
vn -0.3663 -0.9305 -0.0000
vn -0.5268 -0.8500 -0.0000
vn 0.5540 0.8325 -0.0000
vn -0.4949 -0.8689 -0.0000
vn -0.4994 0.8664 -0.0000
vn 0.6847 -0.7288 -0.0000
vn -0.6233 -0.7820 -0.0000
vn -0.5407 0.8412 -0.0000
vn -0.6847 -0.7288 -0.0000
vn 0.9502 0.3116 -0.0000
vn 0.6647 0.7471 -0.0000
vn 0.7984 -0.6021 -0.0000
vn -0.7411 -0.6713 -0.0000
vn -0.5774 0.8164 -0.0000
vn -0.7984 -0.6021 -0.0000
vn -0.8391 -0.5439 -0.0000
vn -0.6099 0.7925 -0.0000
vn -0.9269 0.3754 -0.0000
vn 0.9826 0.1859 -0.0000
vn 0.7624 0.6471 -0.0000
vn 0.9269 0.3754 -0.0000
vn -0.9121 -0.4099 -0.0000
vn 0.7708 -0.6370 -0.0000
vn 0.8755 -0.4833 -0.0000
vn -0.9603 -0.2789 -0.0000
vn -0.8755 -0.4833 -0.0000
vn 0.7355 -0.6775 -0.0000
vn 0.9981 0.0615 -0.0000
vn 0.6938 -0.7202 -0.0000
vn 0.9259 -0.3778 -0.0000
vn -0.9875 -0.1577 -0.0000
vn -0.9259 -0.3778 -0.0000
vn 0.6448 -0.7643 -0.0000
vn -0.9988 -0.0494 -0.0000
vn -0.9600 0.2799 -0.0000
vn 0.5880 -0.8088 -0.0000
vn 0.9992 -0.0400 -0.0000
vn 0.5233 -0.8522 -0.0000
vn 0.9600 0.2799 -0.0000
vn -0.9984 0.0560 -0.0000
vn 0.4509 -0.8926 -0.0000
vn 0.9582 -0.2862 -0.0000
vn -0.9582 -0.2862 -0.0000
vn 0.9919 -0.1274 -0.0000
vn 0.3721 -0.9282 -0.0000
vn -0.9833 0.1819 -0.0000
vn -0.9814 0.1918 -0.0000
vn 0.2888 -0.9574 -0.0000
vn 0.9747 -0.2235 -0.0000
vn 0.2035 -0.9791 -0.0000
vn 0.9814 0.1918 -0.0000
vn -0.9462 0.3237 -0.0000
vn 0.1192 -0.9929 -0.0000
vn 0.9783 -0.2070 -0.0000
vn -0.9783 -0.2070 -0.0000
vn 0.9454 -0.3258 -0.0000
vn -0.8809 0.4733 -0.0000
vn 0.0385 -0.9993 -0.0000
vn 0.9904 -0.1383 -0.0000
vn -0.9904 -0.1383 -0.0000
vn 0.9026 -0.4304 -0.0000
vn 0.8443 0.5359 -0.0000
vn -0.7862 0.6179 -0.0000
vn -0.0662 -0.9978 -0.0000
vn -0.9939 0.1106 -0.0000
vn -0.2007 -0.9796 -0.0000
vn 0.8465 -0.5324 -0.0000
vn 0.9939 0.1106 -0.0000
vn -0.6685 0.7437 -0.0000
vn -0.3340 -0.9426 -0.0000
vn 0.9970 -0.0780 -0.0000
vn -0.9970 -0.0780 -0.0000
vn 0.7792 -0.6268 -0.0000
vn 0.9087 0.4176 -0.0000
vn -0.5397 0.8418 -0.0000
vn -0.4620 -0.8869 -0.0000
vn -0.9994 0.0354 -0.0000
vn -0.4126 0.9109 -0.0000
vn -0.5807 -0.8141 -0.0000
vn 0.9994 0.0354 -0.0000
vn -0.6871 -0.7265 -0.0000
vn 0.7044 -0.7098 -0.0000
vn 0.9997 -0.0245 -0.0000
vn -0.2958 0.9552 -0.0000
vn -0.9997 -0.0245 -0.0000
vn 0.9552 0.2960 -0.0000
vn -0.7790 -0.6270 -0.0000
vn -0.9994 -0.0354 -0.0000
vn 0.6266 -0.7794 -0.0000
vn -0.1934 0.9811 -0.0000
vn -0.8549 -0.5188 -0.0000
vn 0.9997 0.0245 -0.0000
vn -0.1060 0.9944 -0.0000
vn -0.9997 0.0245 -0.0000
vn 0.9846 0.1747 -0.0000
vn -0.0323 0.9995 -0.0000
vn -0.9144 -0.4047 -0.0000
vn 0.9994 -0.0354 -0.0000
vn -0.9577 -0.2879 -0.0000
vn 0.9970 0.0780 -0.0000
vn -0.9970 0.0780 -0.0000
vn -0.9853 -0.1709 -0.0000
vn -0.9939 -0.1106 -0.0000
vn 0.5496 -0.8354 -0.0000
vn -0.9984 -0.0559 -0.0000
vn 0.9939 -0.1106 -0.0000
vn 0.4765 -0.8792 -0.0000
vn 0.9989 -0.0462 -0.0000
vn 0.9904 0.1383 -0.0000
vn 0.4093 -0.9124 -0.0000
vn -0.9997 0.0239 -0.0000
vn -0.9904 0.1383 -0.0000
vn -0.9971 0.0761 -0.0000
vn -0.9814 -0.1918 -0.0000
vn 0.2266 0.9740 -0.0000
vn 0.9899 -0.1419 -0.0000
vn 0.9814 -0.1918 -0.0000
vn 0.3170 0.9484 -0.0000
vn -0.9911 0.1329 -0.0000
vn -0.9783 0.2070 -0.0000
vn 0.4106 0.9118 -0.0000
vn -0.9814 0.1922 -0.0000
vn 0.9783 0.2070 -0.0000
vn 0.5059 0.8626 -0.0000
vn -0.9582 0.2862 -0.0000
vn 0.9715 -0.2372 -0.0000
vn 0.6006 0.7995 -0.0000
vn -0.9679 0.2514 -0.0000
vn 0.9582 0.2862 -0.0000
vn -0.9515 0.3077 -0.0000
vn -0.9600 -0.2799 -0.0000
vn 0.6918 0.7221 -0.0000
vn 0.9455 -0.3256 -0.0000
vn 0.9600 -0.2799 -0.0000
vn -0.9335 0.3586 -0.0000
vn -0.9259 0.3778 -0.0000
vn -0.0366 -0.9993 -0.0000
vn -0.9155 0.4024 -0.0000
vn -0.1176 -0.9931 -0.0000
vn 0.9259 0.3778 -0.0000
vn -0.8988 0.4383 -0.0000
vn -0.9269 -0.3754 -0.0000
vn -0.2091 -0.9779 -0.0000
vn 0.9152 -0.4030 -0.0000
vn 0.9269 -0.3754 -0.0000
vn 0.7761 0.6306 -0.0000
vn -0.8846 0.4663 -0.0000
vn -0.8755 0.4833 -0.0000
vn -0.3115 -0.9503 -0.0000
vn -0.8735 0.4868 -0.0000
vn -0.4235 -0.9059 -0.0000
vn 0.8755 0.4833 -0.0000
vn -0.7984 0.6021 -0.0000
vn 0.8841 -0.4672 -0.0000
vn 0.8499 0.5269 -0.0000
vn -0.8657 0.5006 -0.0000
vn -0.5419 -0.8404 -0.0000
vn -0.8534 0.5213 -0.0000
vn -0.6607 -0.7507 -0.0000
vn 0.8550 -0.5186 -0.0000
vn 0.9104 0.4137 -0.0000
vn -0.8367 0.5477 -0.0000
vn -0.7713 -0.6364 -0.0000
vn -0.8649 -0.5020 -0.0000
vn 0.8295 -0.5586 -0.0000
vn -0.8226 0.5686 -0.0000
vn 0.9555 0.2949 -0.0000
vn -0.9346 -0.3557 -0.0000
vn 0.8083 -0.5888 -0.0000
vt 0.216667 0.000000
vt 0.214286 0.000000
vt 0.211905 0.000000
vt 0.228571 0.000000
vt 0.219048 0.000000
vt 0.221429 0.000000
vt 0.226190 0.000000
vt 0.223810 0.000000
vt 0.235714 0.000000
vt 0.233333 0.000000
vt 0.230952 0.000000
vt 0.250000 0.000000
vt 0.247619 0.000000
vt 0.254762 0.000000
vt 0.252381 0.000000
vt 0.240476 0.000000
vt 0.242857 0.000000
vt 0.238095 0.000000
vt 0.245238 0.000000
vt 0.257143 0.000000
vt 0.378571 0.000000
vt 0.380952 0.000000
vt 0.376190 0.000000
vt 0.373810 0.000000
vt 0.371429 0.000000
vt 0.369048 0.000000
vt 0.366667 0.000000
vt 0.364286 0.000000
vt 0.361905 0.000000
vt 0.359524 0.000000
vt 0.383333 0.000000
vt 0.357143 0.000000
vt 0.442857 0.000000
vt 0.385714 0.000000
vt 0.388095 0.000000
vt 0.354762 0.000000
vt 0.390476 0.000000
vt 0.392857 0.000000
vt 0.395238 0.000000
vt 0.397619 0.000000
vt 0.352381 0.000000
vt 0.400000 0.000000
vt 0.402381 0.000000
vt 0.350000 0.000000
vt 0.404762 0.000000
vt 0.407143 0.000000
vt 0.347619 0.000000
vt 0.409524 0.000000
vt 0.411905 0.000000
vt 0.345238 0.000000
vt 0.414286 0.000000
vt 0.342857 0.000000
vt 0.416667 0.000000
vt 0.340476 0.000000
vt 0.419048 0.000000
vt 0.338095 0.000000
vt 0.421429 0.000000
vt 0.335714 0.000000
vt 0.423810 0.000000
vt 0.333333 0.000000
vt 0.426190 0.000000
vt 0.330952 0.000000
vt 0.428571 0.000000
vt 0.430952 0.000000
vt 0.328571 0.000000
vt 0.433333 0.000000
vt 0.326190 0.000000
vt 0.435714 0.000000
vt 0.438095 0.000000
vt 0.440476 0.000000
vt 0.445238 0.000000
vt 0.323810 0.000000
vt 0.321429 0.000000
vt 0.319048 0.000000
vt 0.316667 0.000000
vt 0.314286 0.000000
vt 0.311905 0.000000
vt 0.309524 0.000000
vt 0.307143 0.000000
vt 0.304762 0.000000
vt 0.447619 0.000000
vt 0.302381 0.000000
vt 0.507143 0.000000
vt 0.450000 0.000000
vt 0.452381 0.000000
vt 0.454762 0.000000
vt 0.300000 0.000000
vt 0.457143 0.000000
vt 0.459524 0.000000
vt 0.297619 0.000000
vt 0.461905 0.000000
vt 0.464286 0.000000
vt 0.295238 0.000000
vt 0.466667 0.000000
vt 0.469048 0.000000
vt 0.292857 0.000000
vt 0.471429 0.000000
vt 0.290476 0.000000
vt 0.473810 0.000000
vt 0.476190 0.000000
vt 0.288095 0.000000
vt 0.478571 0.000000
vt 0.480952 0.000000
vt 0.285714 0.000000
vt 0.483333 0.000000
vt 0.283333 0.000000
vt 0.485714 0.000000
vt 0.488095 0.000000
vt 0.280952 0.000000
vt 0.490476 0.000000
vt 0.492857 0.000000
vt 0.278571 0.000000
vt 0.495238 0.000000
vt 0.497619 0.000000
vt 0.500000 0.000000
vt 0.276190 0.000000
vt 0.502381 0.000000
vt 0.504762 0.000000
vt 0.273810 0.000000
vt 0.271429 0.000000
vt 0.269048 0.000000
vt 0.266667 0.000000
vt 0.264286 0.000000
vt 0.261905 0.000000
vt 0.259524 0.000000
vt 0.540476 0.000000
vt 0.538095 0.000000
vt 0.535714 0.000000
vt 0.533333 0.000000
vt 0.542857 0.000000
vt 0.530952 0.000000
vt 0.545238 0.000000
vt 0.528571 0.000000
vt 0.547619 0.000000
vt 0.550000 0.000000
vt 0.526190 0.000000
vt 0.552381 0.000000
vt 0.709524 0.000000
vt 0.523810 0.000000
vt 0.707143 0.000000
vt 0.711905 0.000000
vt 0.704762 0.000000
vt 0.714286 0.000000
vt 0.554762 0.000000
vt 0.521429 0.000000
vt 0.702381 0.000000
vt 0.716667 0.000000
vt 0.700000 0.000000
vt 0.719048 0.000000
vt 0.697619 0.000000
vt 0.721429 0.000000
vt 0.557143 0.000000
vt 0.519048 0.000000
vt 0.695238 0.000000
vt 0.723810 0.000000
vt 0.692857 0.000000
vt 0.726190 0.000000
vt 0.559524 0.000000
vt 0.516667 0.000000
vt 0.690476 0.000000
vt 0.728571 0.000000
vt 0.561905 0.000000
vt 0.514286 0.000000
vt 0.688095 0.000000
vt 0.730952 0.000000
vt 0.685714 0.000000
vt 0.733333 0.000000
vt 0.564286 0.000000
vt 0.511905 0.000000
vt 0.683333 0.000000
vt 0.735714 0.000000
vt 0.566667 0.000000
vt 0.509524 0.000000
vt 0.680952 0.000000
vt 0.623810 0.000000
vt 0.569048 0.000000
vt 0.678571 0.000000
vt 0.626190 0.000000
vt 0.621429 0.000000
vt 0.676190 0.000000
vt 0.628571 0.000000
vt 0.571429 0.000000
vt 0.619048 0.000000
vt 0.673810 0.000000
vt 0.630952 0.000000
vt 0.573810 0.000000
vt 0.616667 0.000000
vt 0.633333 0.000000
vt 0.671429 0.000000
vt 0.635714 0.000000
vt 0.669048 0.000000
vt 0.576190 0.000000
vt 0.614286 0.000000
vt 0.638095 0.000000
vt 0.666667 0.000000
vt 0.578571 0.000000
vt 0.611905 0.000000
vt 0.640476 0.000000
vt 0.664286 0.000000
vt 0.642857 0.000000
vt 0.661905 0.000000
vt 0.580952 0.000000
vt 0.609524 0.000000
vt 0.645238 0.000000
vt 0.659524 0.000000
vt 0.647619 0.000000
vt 0.657143 0.000000
vt 0.650000 0.000000
vt 0.654762 0.000000
vt 0.583333 0.000000
vt 0.607143 0.000000
vt 0.652381 0.000000
vt 0.585714 0.000000
vt 0.604762 0.000000
vt 0.588095 0.000000
vt 0.602381 0.000000
vt 0.590476 0.000000
vt 0.600000 0.000000
vt 0.592857 0.000000
vt 0.597619 0.000000
vt 0.595238 0.000000
vt 0.769048 0.000000
vt 0.766667 0.000000
vt 0.764286 0.000000
vt 0.761905 0.000000
vt 0.771429 0.000000
vt 0.759524 0.000000
vt 0.773810 0.000000
vt 0.757143 0.000000
vt 0.776190 0.000000
vt 0.778571 0.000000
vt 0.754762 0.000000
vt 0.780952 0.000000
vt 0.938095 0.000000
vt 0.752381 0.000000
vt 0.935714 0.000000
vt 0.940476 0.000000
vt 0.933333 0.000000
vt 0.942857 0.000000
vt 0.783333 0.000000
vt 0.750000 0.000000
vt 0.930952 0.000000
vt 0.945238 0.000000
vt 0.928571 0.000000
vt 0.947619 0.000000
vt 0.926190 0.000000
vt 0.950000 0.000000
vt 0.785714 0.000000
vt 0.747619 0.000000
vt 0.923810 0.000000
vt 0.952381 0.000000
vt 0.921429 0.000000
vt 0.954762 0.000000
vt 0.788095 0.000000
vt 0.745238 0.000000
vt 0.919048 0.000000
vt 0.957143 0.000000
vt 0.790476 0.000000
vt 0.742857 0.000000
vt 0.916667 0.000000
vt 0.959524 0.000000
vt 0.914286 0.000000
vt 0.961905 0.000000
vt 0.792857 0.000000
vt 0.740476 0.000000
vt 0.911905 0.000000
vt 0.964286 0.000000
vt 0.795238 0.000000
vt 0.738095 0.000000
vt 0.909524 0.000000
vt 0.852381 0.000000
vt 0.797619 0.000000
vt 0.907143 0.000000
vt 0.854762 0.000000
vt 0.850000 0.000000
vt 0.904762 0.000000
vt 0.857143 0.000000
vt 0.800000 0.000000
vt 0.847619 0.000000
vt 0.902381 0.000000
vt 0.859524 0.000000
vt 0.802381 0.000000
vt 0.845238 0.000000
vt 0.861905 0.000000
vt 0.900000 0.000000
vt 0.864286 0.000000
vt 0.897619 0.000000
vt 0.804762 0.000000
vt 0.842857 0.000000
vt 0.866667 0.000000
vt 0.895238 0.000000
vt 0.807143 0.000000
vt 0.840476 0.000000
vt 0.869048 0.000000
vt 0.892857 0.000000
vt 0.871429 0.000000
vt 0.890476 0.000000
vt 0.809524 0.000000
vt 0.838095 0.000000
vt 0.873810 0.000000
vt 0.888095 0.000000
vt 0.876190 0.000000
vt 0.885714 0.000000
vt 0.878571 0.000000
vt 0.883333 0.000000
vt 0.811905 0.000000
vt 0.835714 0.000000
vt 0.880952 0.000000
vt 0.814286 0.000000
vt 0.833333 0.000000
vt 0.816667 0.000000
vt 0.830952 0.000000
vt 0.819048 0.000000
vt 0.828571 0.000000
vt 0.821429 0.000000
vt 0.826190 0.000000
vt 0.823810 0.000000
vt 0.971429 0.000000
vt 0.969048 0.000000
vt 0.966667 0.000000
vt 0.992857 0.000000
vt 0.995238 0.000000
vt 0.990476 0.000000
vt 1.000000 0.000000
vt 0.997619 0.000000
vt 0.988095 0.000000
vt 0.985714 0.000000
vt 0.973810 0.000000
vt 0.976190 0.000000
vt 0.978571 0.000000
vt 0.983333 0.000000
vt 0.980952 0.000000
vt 0.061905 0.000000
vt 0.059524 0.000000
vt 0.057143 0.000000
vt 0.064286 0.000000
vt 0.066667 0.000000
vt 0.054762 0.000000
vt 0.069048 0.000000
vt 0.052381 0.000000
vt 0.071429 0.000000
vt 0.073810 0.000000
vt 0.050000 0.000000
vt 0.076190 0.000000
vt 0.078571 0.000000
vt 0.047619 0.000000
vt 0.080952 0.000000
vt 0.083333 0.000000
vt 0.045238 0.000000
vt 0.085714 0.000000
vt 0.088095 0.000000
vt 0.042857 0.000000
vt 0.090476 0.000000
vt 0.092857 0.000000
vt 0.095238 0.000000
vt 0.097619 0.000000
vt 0.100000 0.000000
vt 0.102381 0.000000
vt 0.104762 0.000000
vt 0.107143 0.000000
vt 0.109524 0.000000
vt 0.111905 0.000000
vt 0.114286 0.000000
vt 0.116667 0.000000
vt 0.119048 0.000000
vt 0.040476 0.000000
vt 0.121429 0.000000
vt 0.123810 0.000000
vt 0.126190 0.000000
vt 0.038095 0.000000
vt 0.128571 0.000000
vt 0.130952 0.000000
vt 0.133333 0.000000
vt 0.035714 0.000000
vt 0.135714 0.000000
vt 0.138095 0.000000
vt 0.033333 0.000000
vt 0.140476 0.000000
vt 0.142857 0.000000
vt 0.030952 0.000000
vt 0.145238 0.000000
vt 0.147619 0.000000
vt 0.028571 0.000000
vt 0.150000 0.000000
vt 0.152381 0.000000
vt 0.026190 0.000000
vt 0.154762 0.000000
vt 0.157143 0.000000
vt 0.023810 0.000000
vt 0.159524 0.000000
vt 0.161905 0.000000
vt 0.021429 0.000000
vt 0.164286 0.000000
vt 0.166667 0.000000
vt 0.169048 0.000000
vt 0.019048 0.000000
vt 0.171429 0.000000
vt 0.173810 0.000000
vt 0.016667 0.000000
vt 0.176190 0.000000
vt 0.178571 0.000000
vt 0.014286 0.000000
vt 0.180952 0.000000
vt 0.011905 0.000000
vt 0.183333 0.000000
vt 0.009524 0.000000
vt 0.185714 0.000000
vt 0.188095 0.000000
vt 0.007143 0.000000
vt 0.190476 0.000000
vt 0.004762 0.000000
vt 0.192857 0.000000
vt 0.002381 0.000000
vt 0.195238 0.000000
vt 0.197619 0.000000
vt 0.000000 0.000000
vt 0.209524 0.000000
vt 0.200000 0.000000
vt 0.202381 0.000000
vt 0.204762 0.000000
vt 0.207143 0.000000
s 0
f 92/1/1 91/2/1 90/3/1
f 92/1/1 90/3/1 97/4/1
f 93/5/2 92/1/2 97/4/2
f 94/6/1 93/5/1 96/7/1
f 96/7/2 93/5/2 97/4/2
f 94/6/1 96/7/1 95/8/1
f 100/9/1 99/10/1 98/11/1
f 100/9/1 98/11/1 106/12/1
f 106/12/1 98/11/1 105/13/1
f 100/9/1 106/12/1 108/14/1
f 107/15/1 106/12/1 105/13/1
f 100/9/1 108/14/1 102/16/1
f 102/16/1 108/14/1 107/15/1
f 102/16/1 107/15/1 103/17/1
f 103/17/1 107/15/1 105/13/1
f 100/9/1 102/16/1 101/18/1
f 104/19/1 103/17/1 105/13/1
f 109/20/1 160/21/1 161/22/1
f 161/22/1 160/21/1 159/23/1
f 161/22/1 159/23/1 158/24/1
f 161/22/1 158/24/1 157/25/1
f 161/22/1 157/25/1 156/26/1
f 161/22/1 156/26/1 155/27/1
f 161/22/1 155/27/1 154/28/1
f 161/22/1 154/28/1 153/29/1
f 161/22/1 153/29/1 152/30/1
f 161/22/1 152/30/1 162/31/1
f 162/31/1 152/30/1 151/32/1
f 109/20/1 161/22/1 187/33/1
f 163/34/1 162/31/1 151/32/1
f 164/35/1 163/34/1 151/32/1
f 164/35/1 151/32/1 150/36/1
f 165/37/1 164/35/1 150/36/1
f 166/38/1 165/37/1 150/36/1
f 167/39/1 166/38/1 150/36/1
f 168/40/1 167/39/1 150/36/1
f 168/40/1 150/36/1 149/41/1
f 169/42/1 168/40/1 149/41/1
f 170/43/1 169/42/1 149/41/1
f 170/43/1 149/41/1 148/44/1
f 171/45/1 170/43/1 148/44/1
f 172/46/1 171/45/1 148/44/1
f 172/46/1 148/44/1 147/47/1
f 173/48/1 172/46/1 147/47/1
f 174/49/1 173/48/1 147/47/1
f 174/49/1 147/47/1 146/50/1
f 175/51/1 174/49/1 146/50/1
f 175/51/1 146/50/1 145/52/1
f 176/53/1 175/51/1 145/52/1
f 176/53/1 145/52/1 144/54/1
f 177/55/1 176/53/1 144/54/1
f 177/55/1 144/54/1 143/56/1
f 178/57/1 177/55/1 143/56/1
f 178/57/1 143/56/1 142/58/1
f 179/59/1 178/57/1 142/58/1
f 179/59/1 142/58/1 141/60/1
f 180/61/1 179/59/1 141/60/1
f 180/61/1 141/60/1 140/62/1
f 181/63/1 180/61/1 140/62/1
f 182/64/1 181/63/1 140/62/1
f 182/64/1 140/62/1 139/65/1
f 183/66/1 182/64/1 139/65/1
f 183/66/1 139/65/1 138/67/1
f 184/68/1 183/66/1 138/67/1
f 185/69/1 184/68/1 138/67/1
f 186/70/1 185/69/1 138/67/1
f 109/20/1 187/33/1 188/71/1
f 188/71/1 187/33/1 186/70/1
f 188/71/1 186/70/1 138/67/1
f 188/71/1 138/67/1 137/72/1
f 188/71/1 137/72/1 136/73/1
f 188/71/1 136/73/1 135/74/1
f 188/71/1 135/74/1 134/75/1
f 188/71/1 134/75/1 133/76/1
f 188/71/1 133/76/1 132/77/1
f 188/71/1 132/77/1 131/78/1
f 188/71/1 131/78/1 130/79/1
f 188/71/1 130/79/1 129/80/1
f 188/71/1 129/80/1 189/81/1
f 189/81/1 129/80/1 128/82/1
f 109/20/1 188/71/1 214/83/1
f 190/84/1 189/81/1 128/82/1
f 191/85/1 190/84/1 128/82/1
f 192/86/1 191/85/1 128/82/1
f 192/86/1 128/82/1 127/87/1
f 193/88/1 192/86/1 127/87/1
f 194/89/1 193/88/1 127/87/1
f 194/89/1 127/87/1 126/90/1
f 195/91/1 194/89/1 126/90/1
f 196/92/1 195/91/1 126/90/1
f 196/92/1 126/90/1 125/93/1
f 197/94/1 196/92/1 125/93/1
f 198/95/1 197/94/1 125/93/1
f 198/95/1 125/93/1 124/96/1
f 199/97/1 198/95/1 124/96/1
f 199/97/1 124/96/1 123/98/1
f 200/99/1 199/97/1 123/98/1
f 201/100/1 200/99/1 123/98/1
f 201/100/1 123/98/1 122/101/1
f 202/102/1 201/100/1 122/101/1
f 203/103/1 202/102/1 122/101/1
f 203/103/1 122/101/1 121/104/1
f 204/105/1 203/103/1 121/104/1
f 204/105/1 121/104/1 120/106/1
f 205/107/1 204/105/1 120/106/1
f 206/108/1 205/107/1 120/106/1
f 206/108/1 120/106/1 119/109/1
f 207/110/1 206/108/1 119/109/1
f 208/111/1 207/110/1 119/109/1
f 208/111/1 119/109/1 118/112/1
f 209/113/1 208/111/1 118/112/1
f 210/114/1 209/113/1 118/112/1
f 211/115/1 210/114/1 118/112/1
f 211/115/1 118/112/1 117/116/1
f 212/117/1 211/115/1 117/116/1
f 213/118/1 212/117/1 117/116/1
f 109/20/1 214/83/1 213/118/1
f 109/20/1 213/118/1 117/116/1
f 109/20/1 117/116/1 116/119/1
f 109/20/1 116/119/1 115/120/1
f 109/20/1 115/120/1 114/121/1
f 109/20/1 114/121/1 113/122/1
f 109/20/1 113/122/1 112/123/1
f 109/20/1 112/123/1 111/124/1
f 109/20/1 111/124/1 110/125/1
f 228/126/1 227/127/1 226/128/1
f 228/126/1 226/128/1 225/129/1
f 229/130/1 228/126/1 225/129/1
f 229/130/1 225/129/1 224/131/1
f 230/132/1 229/130/1 224/131/1
f 230/132/1 224/131/1 223/133/1
f 231/134/1 230/132/1 223/133/1
f 232/135/1 231/134/1 223/133/1
f 232/135/1 223/133/1 222/136/1
f 233/137/1 232/135/1 222/136/1
f 233/137/1 222/136/1 299/138/1
f 299/138/1 222/136/1 221/139/1
f 233/137/1 299/138/1 298/140/1
f 300/141/1 299/138/1 221/139/1
f 233/137/1 298/140/1 297/142/1
f 301/143/1 300/141/1 221/139/1
f 234/144/1 233/137/1 297/142/1
f 301/143/1 221/139/1 220/145/1
f 234/144/1 297/142/1 296/146/1
f 302/147/1 301/143/1 220/145/1
f 234/144/1 296/146/1 295/148/1
f 303/149/1 302/147/1 220/145/1
f 234/144/1 295/148/1 294/150/1
f 304/151/1 303/149/1 220/145/1
f 235/152/1 234/144/1 294/150/1
f 304/151/1 220/145/1 219/153/1
f 235/152/1 294/150/1 293/154/1
f 305/155/1 304/151/1 219/153/1
f 235/152/1 293/154/1 292/156/1
f 306/157/1 305/155/1 219/153/1
f 236/158/1 235/152/1 292/156/1
f 306/157/1 219/153/1 218/159/1
f 236/158/1 292/156/1 291/160/1
f 307/161/1 306/157/1 218/159/1
f 237/162/1 236/158/1 291/160/1
f 307/161/1 218/159/1 217/163/1
f 237/162/1 291/160/1 290/164/1
f 308/165/1 307/161/1 217/163/1
f 237/162/1 290/164/1 289/166/1
f 309/167/1 308/165/1 217/163/1
f 238/168/1 237/162/1 289/166/1
f 309/167/1 217/163/1 216/169/1
f 238/168/1 289/166/1 288/170/1
f 310/171/1 309/167/1 216/169/1
f 239/172/1 238/168/1 288/170/1
f 310/171/1 216/169/1 215/173/1
f 239/172/1 288/170/1 287/174/1
f 263/175/1 310/171/1 215/173/1
f 240/176/1 239/172/1 287/174/1
f 240/176/1 287/174/1 286/177/1
f 264/178/1 263/175/1 215/173/1
f 264/178/1 215/173/1 262/179/1
f 240/176/1 286/177/1 285/180/1
f 265/181/1 264/178/1 262/179/1
f 241/182/1 240/176/1 285/180/1
f 265/181/1 262/179/1 261/183/1
f 241/182/1 285/180/1 284/184/1
f 266/185/1 265/181/1 261/183/1
f 242/186/1 241/182/1 284/184/1
f 266/185/1 261/183/1 260/187/1
f 267/188/1 266/185/1 260/187/1
f 242/186/1 284/184/1 283/189/1
f 268/190/1 267/188/1 260/187/1
f 242/186/1 283/189/1 282/191/1
f 243/192/1 242/186/1 282/191/1
f 268/190/1 260/187/1 259/193/1
f 269/194/1 268/190/1 259/193/1
f 243/192/1 282/191/1 281/195/1
f 244/196/1 243/192/1 281/195/1
f 269/194/1 259/193/1 258/197/1
f 270/198/1 269/194/1 258/197/1
f 244/196/1 281/195/1 280/199/1
f 271/200/1 270/198/1 258/197/1
f 244/196/1 280/199/1 279/201/1
f 245/202/1 244/196/1 279/201/1
f 271/200/1 258/197/1 257/203/1
f 272/204/1 271/200/1 257/203/1
f 245/202/1 279/201/1 278/205/1
f 273/206/1 272/204/1 257/203/1
f 245/202/1 278/205/1 277/207/1
f 274/208/1 273/206/1 257/203/1
f 245/202/1 277/207/1 276/209/1
f 246/210/1 245/202/1 276/209/1
f 274/208/1 257/203/1 256/211/1
f 275/212/1 274/208/1 256/211/1
f 246/210/1 276/209/1 275/212/1
f 246/210/1 275/212/1 256/211/1
f 247/213/1 246/210/1 256/211/1
f 247/213/1 256/211/1 255/214/1
f 248/215/1 247/213/1 255/214/1
f 248/215/1 255/214/1 254/216/1
f 249/217/1 248/215/1 254/216/1
f 249/217/1 254/216/1 253/218/1
f 250/219/1 249/217/1 253/218/1
f 250/219/1 253/218/1 252/220/1
f 251/221/1 250/219/1 252/220/1
f 324/222/1 323/223/1 322/224/1
f 324/222/1 322/224/1 321/225/1
f 325/226/1 324/222/1 321/225/1
f 325/226/1 321/225/1 320/227/1
f 326/228/1 325/226/1 320/227/1
f 326/228/1 320/227/1 319/229/1
f 327/230/1 326/228/1 319/229/1
f 328/231/1 327/230/1 319/229/1
f 328/231/1 319/229/1 318/232/1
f 329/233/1 328/231/1 318/232/1
f 329/233/1 318/232/1 395/234/1
f 395/234/1 318/232/1 317/235/1
f 329/233/1 395/234/1 394/236/1
f 396/237/1 395/234/1 317/235/1
f 329/233/1 394/236/1 393/238/1
f 397/239/1 396/237/1 317/235/1
f 330/240/1 329/233/1 393/238/1
f 397/239/1 317/235/1 316/241/1
f 330/240/1 393/238/1 392/242/1
f 398/243/1 397/239/1 316/241/1
f 330/240/1 392/242/1 391/244/1
f 399/245/1 398/243/1 316/241/1
f 330/240/1 391/244/1 390/246/1
f 400/247/1 399/245/1 316/241/1
f 331/248/1 330/240/1 390/246/1
f 400/247/1 316/241/1 315/249/1
f 331/248/1 390/246/1 389/250/1
f 401/251/1 400/247/1 315/249/1
f 331/248/1 389/250/1 388/252/1
f 402/253/1 401/251/1 315/249/1
f 332/254/1 331/248/1 388/252/1
f 402/253/1 315/249/1 314/255/1
f 332/254/1 388/252/1 387/256/1
f 403/257/1 402/253/1 314/255/1
f 333/258/1 332/254/1 387/256/1
f 403/257/1 314/255/1 313/259/1
f 333/258/1 387/256/1 386/260/1
f 404/261/1 403/257/1 313/259/1
f 333/258/1 386/260/1 385/262/1
f 405/263/1 404/261/1 313/259/1
f 334/264/1 333/258/1 385/262/1
f 405/263/1 313/259/1 312/265/1
f 334/264/1 385/262/1 384/266/1
f 406/267/1 405/263/1 312/265/1
f 335/268/1 334/264/1 384/266/1
f 406/267/1 312/265/1 311/269/1
f 335/268/1 384/266/1 383/270/1
f 359/271/1 406/267/1 311/269/1
f 336/272/1 335/268/1 383/270/1
f 336/272/1 383/270/1 382/273/1
f 360/274/1 359/271/1 311/269/1
f 360/274/1 311/269/1 358/275/1
f 336/272/1 382/273/1 381/276/1
f 361/277/1 360/274/1 358/275/1
f 337/278/1 336/272/1 381/276/1
f 361/277/1 358/275/1 357/279/1
f 337/278/1 381/276/1 380/280/1
f 362/281/1 361/277/1 357/279/1
f 338/282/1 337/278/1 380/280/1
f 362/281/1 357/279/1 356/283/1
f 363/284/1 362/281/1 356/283/1
f 338/282/1 380/280/1 379/285/1
f 364/286/1 363/284/1 356/283/1
f 338/282/1 379/285/1 378/287/1
f 339/288/1 338/282/1 378/287/1
f 364/286/1 356/283/1 355/289/1
f 365/290/1 364/286/1 355/289/1
f 339/288/1 378/287/1 377/291/1
f 340/292/1 339/288/1 377/291/1
f 365/290/1 355/289/1 354/293/1
f 366/294/1 365/290/1 354/293/1
f 340/292/1 377/291/1 376/295/1
f 367/296/1 366/294/1 354/293/1
f 340/292/1 376/295/1 375/297/1
f 341/298/1 340/292/1 375/297/1
f 367/296/1 354/293/1 353/299/1
f 368/300/1 367/296/1 353/299/1
f 341/298/1 375/297/1 374/301/1
f 369/302/1 368/300/1 353/299/1
f 341/298/1 374/301/1 373/303/1
f 370/304/1 369/302/1 353/299/1
f 341/298/1 373/303/1 372/305/1
f 342/306/1 341/298/1 372/305/1
f 370/304/1 353/299/1 352/307/1
f 371/308/1 370/304/1 352/307/1
f 342/306/1 372/305/1 371/308/1
f 342/306/1 371/308/1 352/307/1
f 343/309/1 342/306/1 352/307/1
f 343/309/1 352/307/1 351/310/1
f 344/311/1 343/309/1 351/310/1
f 344/311/1 351/310/1 350/312/1
f 345/313/1 344/311/1 350/312/1
f 345/313/1 350/312/1 349/314/1
f 346/315/1 345/313/1 349/314/1
f 346/315/1 349/314/1 348/316/1
f 347/317/1 346/315/1 348/316/1
f 409/318/1 408/319/1 407/320/1
f 409/318/1 407/320/1 418/321/1
f 418/321/1 407/320/1 419/322/1
f 419/322/1 407/320/1 417/323/1
f 409/318/1 418/321/1 421/324/1
f 420/325/1 419/322/1 417/323/1
f 409/318/1 421/324/1 420/325/1
f 409/318/1 420/325/1 417/323/1
f 409/318/1 417/323/1 416/326/1
f 409/318/1 416/326/1 415/327/1
f 410/328/1 409/318/1 415/327/1
f 411/329/2 410/328/2 415/327/2
f 412/330/1 411/329/1 414/331/1
f 414/331/2 411/329/2 415/327/2
f 412/330/1 414/331/1 413/332/1
f 27/333/1 26/334/1 25/335/1
f 28/336/1 27/333/1 25/335/1
f 29/337/1 28/336/1 25/335/1
f 29/337/1 25/335/1 24/338/1
f 30/339/1 29/337/1 24/338/1
f 30/339/1 24/338/1 23/340/1
f 31/341/1 30/339/1 23/340/1
f 32/342/1 31/341/1 23/340/1
f 32/342/1 23/340/1 22/343/1
f 33/344/1 32/342/1 22/343/1
f 34/345/1 33/344/1 22/343/1
f 34/345/1 22/343/1 21/346/1
f 35/347/1 34/345/1 21/346/1
f 36/348/1 35/347/1 21/346/1
f 36/348/1 21/346/1 20/349/1
f 37/350/1 36/348/1 20/349/1
f 38/351/1 37/350/1 20/349/1
f 38/351/1 20/349/1 19/352/1
f 39/353/1 38/351/1 40/354/1
f 40/354/1 38/351/1 41/355/1
f 41/355/1 38/351/1 42/356/1
f 42/356/1 38/351/1 43/357/1
f 43/357/1 38/351/1 44/358/1
f 44/358/1 38/351/1 45/359/1
f 45/359/1 38/351/1 46/360/1
f 46/360/1 38/351/1 47/361/1
f 47/361/1 38/351/1 48/362/1
f 48/362/1 38/351/1 49/363/1
f 49/363/1 38/351/1 50/364/1
f 50/364/1 38/351/1 19/352/1
f 50/364/1 19/352/1 51/365/1
f 51/365/1 19/352/1 18/366/1
f 52/367/1 51/365/1 18/366/1
f 53/368/1 52/367/1 18/366/1
f 54/369/1 53/368/1 18/366/1
f 54/369/1 18/366/1 17/370/1
f 55/371/1 54/369/1 17/370/1
f 56/372/1 55/371/1 17/370/1
f 57/373/1 56/372/1 17/370/1
f 57/373/1 17/370/1 16/374/1
f 58/375/1 57/373/1 16/374/1
f 59/376/1 58/375/1 16/374/1
f 59/376/1 16/374/1 15/377/1
f 60/378/1 59/376/1 15/377/1
f 61/379/1 60/378/1 15/377/1
f 61/379/1 15/377/1 14/380/1
f 62/381/1 61/379/1 14/380/1
f 63/382/1 62/381/1 14/380/1
f 63/382/1 14/380/1 13/383/1
f 64/384/1 63/382/1 13/383/1
f 65/385/1 64/384/1 13/383/1
f 65/385/1 13/383/1 12/386/1
f 66/387/1 65/385/1 12/386/1
f 67/388/1 66/387/1 12/386/1
f 67/388/1 12/386/1 11/389/1
f 68/390/1 67/388/1 11/389/1
f 69/391/1 68/390/1 11/389/1
f 69/391/1 11/389/1 10/392/1
f 70/393/1 69/391/1 10/392/1
f 71/394/1 70/393/1 10/392/1
f 72/395/1 71/394/1 10/392/1
f 72/395/1 10/392/1 9/396/1
f 73/397/1 72/395/1 9/396/1
f 74/398/1 73/397/1 9/396/1
f 74/398/1 9/396/1 8/399/1
f 75/400/1 74/398/1 8/399/1
f 76/401/1 75/400/1 8/399/1
f 76/401/1 8/399/1 7/402/1
f 77/403/1 76/401/1 7/402/1
f 77/403/1 7/402/1 6/404/1
f 78/405/1 77/403/1 6/404/1
f 78/405/1 6/404/1 5/406/1
f 79/407/1 78/405/1 5/406/1
f 80/408/1 79/407/1 5/406/1
f 80/408/1 5/406/1 4/409/1
f 81/410/1 80/408/1 4/409/1
f 81/410/1 4/409/1 3/411/1
f 82/412/1 81/410/1 3/411/1
f 82/412/1 3/411/1 2/413/1
f 83/414/1 82/412/1 2/413/1
f 84/415/1 83/414/1 2/413/1
f 84/415/1 2/413/1 1/416/1
f 84/415/1 1/416/1 89/417/1
f 85/418/1 84/415/1 89/417/1
f 86/419/1 85/418/1 89/417/1
f 87/420/1 86/419/1 89/417/1
f 88/421/1 87/420/1 89/417/1
f 513/1/2 511/3/2 512/2/2
f 513/1/2 518/4/2 511/3/2
f 514/5/2 518/4/2 513/1/2
f 515/6/2 517/7/2 514/5/2
f 517/7/2 518/4/2 514/5/2
f 515/6/2 516/8/2 517/7/2
f 521/9/2 519/11/2 520/10/2
f 521/9/2 527/12/2 519/11/2
f 527/12/2 526/13/2 519/11/2
f 521/9/2 529/14/2 527/12/2
f 528/15/2 526/13/2 527/12/2
f 521/9/2 523/16/2 529/14/2
f 523/16/2 528/15/2 529/14/2
f 523/16/2 524/17/2 528/15/2
f 524/17/2 526/13/2 528/15/2
f 521/9/2 522/18/2 523/16/2
f 525/19/2 526/13/2 524/17/2
f 530/20/2 582/22/2 581/21/2
f 582/22/2 580/23/2 581/21/2
f 582/22/2 579/24/2 580/23/2
f 582/22/2 578/25/2 579/24/2
f 582/22/2 577/26/2 578/25/2
f 582/22/2 576/27/2 577/26/2
f 582/22/2 575/28/2 576/27/2
f 582/22/2 574/29/2 575/28/2
f 582/22/2 573/30/2 574/29/2
f 582/22/2 583/31/2 573/30/2
f 583/31/2 572/32/2 573/30/2
f 530/20/2 608/33/2 582/22/2
f 584/34/2 572/32/2 583/31/2
f 585/35/2 572/32/2 584/34/2
f 585/35/2 571/36/2 572/32/2
f 586/37/2 571/36/2 585/35/2
f 587/38/2 571/36/2 586/37/2
f 588/39/2 571/36/2 587/38/2
f 589/40/2 571/36/2 588/39/2
f 589/40/2 570/41/2 571/36/2
f 590/42/2 570/41/2 589/40/2
f 591/43/2 570/41/2 590/42/2
f 591/43/2 569/44/2 570/41/2
f 592/45/2 569/44/2 591/43/2
f 593/46/2 569/44/2 592/45/2
f 593/46/2 568/47/2 569/44/2
f 594/48/2 568/47/2 593/46/2
f 595/49/2 568/47/2 594/48/2
f 595/49/2 567/50/2 568/47/2
f 596/51/2 567/50/2 595/49/2
f 596/51/2 566/52/2 567/50/2
f 597/53/2 566/52/2 596/51/2
f 597/53/2 565/54/2 566/52/2
f 598/55/2 565/54/2 597/53/2
f 598/55/2 564/56/2 565/54/2
f 599/57/2 564/56/2 598/55/2
f 599/57/2 563/58/2 564/56/2
f 600/59/2 563/58/2 599/57/2
f 600/59/2 562/60/2 563/58/2
f 601/61/2 562/60/2 600/59/2
f 601/61/2 561/62/2 562/60/2
f 602/63/2 561/62/2 601/61/2
f 603/64/2 561/62/2 602/63/2
f 603/64/2 560/65/2 561/62/2
f 604/66/2 560/65/2 603/64/2
f 604/66/2 559/67/2 560/65/2
f 605/68/2 559/67/2 604/66/2
f 606/69/2 559/67/2 605/68/2
f 607/70/2 559/67/2 606/69/2
f 530/20/2 609/71/2 608/33/2
f 609/71/2 607/70/2 608/33/2
f 609/71/2 559/67/2 607/70/2
f 609/71/2 558/72/2 559/67/2
f 609/71/2 557/73/2 558/72/2
f 609/71/2 556/74/2 557/73/2
f 609/71/2 555/75/2 556/74/2
f 609/71/2 554/76/2 555/75/2
f 609/71/2 553/77/2 554/76/2
f 609/71/2 552/78/2 553/77/2
f 609/71/2 551/79/2 552/78/2
f 609/71/2 550/80/2 551/79/2
f 609/71/2 610/81/2 550/80/2
f 610/81/2 549/82/2 550/80/2
f 530/20/2 635/83/2 609/71/2
f 611/84/2 549/82/2 610/81/2
f 612/85/2 549/82/2 611/84/2
f 613/86/2 549/82/2 612/85/2
f 613/86/2 548/87/2 549/82/2
f 614/88/2 548/87/2 613/86/2
f 615/89/2 548/87/2 614/88/2
f 615/89/2 547/90/2 548/87/2
f 616/91/2 547/90/2 615/89/2
f 617/92/2 547/90/2 616/91/2
f 617/92/2 546/93/2 547/90/2
f 618/94/2 546/93/2 617/92/2
f 619/95/2 546/93/2 618/94/2
f 619/95/2 545/96/2 546/93/2
f 620/97/2 545/96/2 619/95/2
f 620/97/2 544/98/2 545/96/2
f 621/99/2 544/98/2 620/97/2
f 622/100/2 544/98/2 621/99/2
f 622/100/2 543/101/2 544/98/2
f 623/102/2 543/101/2 622/100/2
f 624/103/2 543/101/2 623/102/2
f 624/103/2 542/104/2 543/101/2
f 625/105/2 542/104/2 624/103/2
f 625/105/2 541/106/2 542/104/2
f 626/107/2 541/106/2 625/105/2
f 627/108/2 541/106/2 626/107/2
f 627/108/2 540/109/2 541/106/2
f 628/110/2 540/109/2 627/108/2
f 629/111/2 540/109/2 628/110/2
f 629/111/2 539/112/2 540/109/2
f 630/113/2 539/112/2 629/111/2
f 631/114/2 539/112/2 630/113/2
f 632/115/2 539/112/2 631/114/2
f 632/115/2 538/116/2 539/112/2
f 633/117/2 538/116/2 632/115/2
f 634/118/2 538/116/2 633/117/2
f 530/20/2 634/118/2 635/83/2
f 530/20/2 538/116/2 634/118/2
f 530/20/2 537/119/2 538/116/2
f 530/20/2 536/120/2 537/119/2
f 530/20/2 535/121/2 536/120/2
f 530/20/2 534/122/2 535/121/2
f 530/20/2 533/123/2 534/122/2
f 530/20/2 532/124/2 533/123/2
f 530/20/2 531/125/2 532/124/2
f 649/126/2 647/128/2 648/127/2
f 649/126/2 646/129/2 647/128/2
f 650/130/2 646/129/2 649/126/2
f 650/130/2 645/131/2 646/129/2
f 651/132/2 645/131/2 650/130/2
f 651/132/2 644/133/2 645/131/2
f 652/134/2 644/133/2 651/132/2
f 653/135/2 644/133/2 652/134/2
f 653/135/2 643/136/2 644/133/2
f 654/137/2 643/136/2 653/135/2
f 654/137/2 720/138/2 643/136/2
f 720/138/2 642/139/2 643/136/2
f 654/137/2 719/140/2 720/138/2
f 721/141/2 642/139/2 720/138/2
f 654/137/2 718/142/2 719/140/2
f 722/143/2 642/139/2 721/141/2
f 655/144/2 718/142/2 654/137/2
f 722/143/2 641/145/2 642/139/2
f 655/144/2 717/146/2 718/142/2
f 723/147/2 641/145/2 722/143/2
f 655/144/2 716/148/2 717/146/2
f 724/149/2 641/145/2 723/147/2
f 655/144/2 715/150/2 716/148/2
f 725/151/2 641/145/2 724/149/2
f 656/152/2 715/150/2 655/144/2
f 725/151/2 640/153/2 641/145/2
f 656/152/2 714/154/2 715/150/2
f 726/155/2 640/153/2 725/151/2
f 656/152/2 713/156/2 714/154/2
f 727/157/2 640/153/2 726/155/2
f 657/158/2 713/156/2 656/152/2
f 727/157/2 639/159/2 640/153/2
f 657/158/2 712/160/2 713/156/2
f 728/161/2 639/159/2 727/157/2
f 658/162/2 712/160/2 657/158/2
f 728/161/2 638/163/2 639/159/2
f 658/162/2 711/164/2 712/160/2
f 729/165/2 638/163/2 728/161/2
f 658/162/2 710/166/2 711/164/2
f 730/167/2 638/163/2 729/165/2
f 659/168/2 710/166/2 658/162/2
f 730/167/2 637/169/2 638/163/2
f 659/168/2 709/170/2 710/166/2
f 731/171/2 637/169/2 730/167/2
f 660/172/2 709/170/2 659/168/2
f 731/171/2 636/173/2 637/169/2
f 660/172/2 708/174/2 709/170/2
f 684/175/2 636/173/2 731/171/2
f 661/176/2 708/174/2 660/172/2
f 661/176/2 707/177/2 708/174/2
f 685/178/2 636/173/2 684/175/2
f 685/178/2 683/179/2 636/173/2
f 661/176/2 706/180/2 707/177/2
f 686/181/2 683/179/2 685/178/2
f 662/182/2 706/180/2 661/176/2
f 686/181/2 682/183/2 683/179/2
f 662/182/2 705/184/2 706/180/2
f 687/185/2 682/183/2 686/181/2
f 663/186/2 705/184/2 662/182/2
f 687/185/2 681/187/2 682/183/2
f 688/188/2 681/187/2 687/185/2
f 663/186/2 704/189/2 705/184/2
f 689/190/2 681/187/2 688/188/2
f 663/186/2 703/191/2 704/189/2
f 664/192/2 703/191/2 663/186/2
f 689/190/2 680/193/2 681/187/2
f 690/194/2 680/193/2 689/190/2
f 664/192/2 702/195/2 703/191/2
f 665/196/2 702/195/2 664/192/2
f 690/194/2 679/197/2 680/193/2
f 691/198/2 679/197/2 690/194/2
f 665/196/2 701/199/2 702/195/2
f 692/200/2 679/197/2 691/198/2
f 665/196/2 700/201/2 701/199/2
f 666/202/2 700/201/2 665/196/2
f 692/200/2 678/203/2 679/197/2
f 693/204/2 678/203/2 692/200/2
f 666/202/2 699/205/2 700/201/2
f 694/206/2 678/203/2 693/204/2
f 666/202/2 698/207/2 699/205/2
f 695/208/2 678/203/2 694/206/2
f 666/202/2 697/209/2 698/207/2
f 667/210/2 697/209/2 666/202/2
f 695/208/2 677/211/2 678/203/2
f 696/212/2 677/211/2 695/208/2
f 667/210/2 696/212/2 697/209/2
f 667/210/2 677/211/2 696/212/2
f 668/213/2 677/211/2 667/210/2
f 668/213/2 676/214/2 677/211/2
f 669/215/2 676/214/2 668/213/2
f 669/215/2 675/216/2 676/214/2
f 670/217/2 675/216/2 669/215/2
f 670/217/2 674/218/2 675/216/2
f 671/219/2 674/218/2 670/217/2
f 671/219/2 673/220/2 674/218/2
f 672/221/2 673/220/2 671/219/2
f 745/222/2 743/224/2 744/223/2
f 745/222/2 742/225/2 743/224/2
f 746/226/2 742/225/2 745/222/2
f 746/226/2 741/227/2 742/225/2
f 747/228/2 741/227/2 746/226/2
f 747/228/2 740/229/2 741/227/2
f 748/230/2 740/229/2 747/228/2
f 749/231/2 740/229/2 748/230/2
f 749/231/2 739/232/2 740/229/2
f 750/233/2 739/232/2 749/231/2
f 750/233/2 816/234/2 739/232/2
f 816/234/2 738/235/2 739/232/2
f 750/233/2 815/236/2 816/234/2
f 817/237/2 738/235/2 816/234/2
f 750/233/2 814/238/2 815/236/2
f 818/239/2 738/235/2 817/237/2
f 751/240/2 814/238/2 750/233/2
f 818/239/2 737/241/2 738/235/2
f 751/240/2 813/242/2 814/238/2
f 819/243/2 737/241/2 818/239/2
f 751/240/2 812/244/2 813/242/2
f 820/245/2 737/241/2 819/243/2
f 751/240/2 811/246/2 812/244/2
f 821/247/2 737/241/2 820/245/2
f 752/248/2 811/246/2 751/240/2
f 821/247/2 736/249/2 737/241/2
f 752/248/2 810/250/2 811/246/2
f 822/251/2 736/249/2 821/247/2
f 752/248/2 809/252/2 810/250/2
f 823/253/2 736/249/2 822/251/2
f 753/254/2 809/252/2 752/248/2
f 823/253/2 735/255/2 736/249/2
f 753/254/2 808/256/2 809/252/2
f 824/257/2 735/255/2 823/253/2
f 754/258/2 808/256/2 753/254/2
f 824/257/2 734/259/2 735/255/2
f 754/258/2 807/260/2 808/256/2
f 825/261/2 734/259/2 824/257/2
f 754/258/2 806/262/2 807/260/2
f 826/263/2 734/259/2 825/261/2
f 755/264/2 806/262/2 754/258/2
f 826/263/2 733/265/2 734/259/2
f 755/264/2 805/266/2 806/262/2
f 827/267/2 733/265/2 826/263/2
f 756/268/2 805/266/2 755/264/2
f 827/267/2 732/269/2 733/265/2
f 756/268/2 804/270/2 805/266/2
f 780/271/2 732/269/2 827/267/2
f 757/272/2 804/270/2 756/268/2
f 757/272/2 803/273/2 804/270/2
f 781/274/2 732/269/2 780/271/2
f 781/274/2 779/275/2 732/269/2
f 757/272/2 802/276/2 803/273/2
f 782/277/2 779/275/2 781/274/2
f 758/278/2 802/276/2 757/272/2
f 782/277/2 778/279/2 779/275/2
f 758/278/2 801/280/2 802/276/2
f 783/281/2 778/279/2 782/277/2
f 759/282/2 801/280/2 758/278/2
f 783/281/2 777/283/2 778/279/2
f 784/284/2 777/283/2 783/281/2
f 759/282/2 800/285/2 801/280/2
f 785/286/2 777/283/2 784/284/2
f 759/282/2 799/287/2 800/285/2
f 760/288/2 799/287/2 759/282/2
f 785/286/2 776/289/2 777/283/2
f 786/290/2 776/289/2 785/286/2
f 760/288/2 798/291/2 799/287/2
f 761/292/2 798/291/2 760/288/2
f 786/290/2 775/293/2 776/289/2
f 787/294/2 775/293/2 786/290/2
f 761/292/2 797/295/2 798/291/2
f 788/296/2 775/293/2 787/294/2
f 761/292/2 796/297/2 797/295/2
f 762/298/2 796/297/2 761/292/2
f 788/296/2 774/299/2 775/293/2
f 789/300/2 774/299/2 788/296/2
f 762/298/2 795/301/2 796/297/2
f 790/302/2 774/299/2 789/300/2
f 762/298/2 794/303/2 795/301/2
f 791/304/2 774/299/2 790/302/2
f 762/298/2 793/305/2 794/303/2
f 763/306/2 793/305/2 762/298/2
f 791/304/2 773/307/2 774/299/2
f 792/308/2 773/307/2 791/304/2
f 763/306/2 792/308/2 793/305/2
f 763/306/2 773/307/2 792/308/2
f 764/309/2 773/307/2 763/306/2
f 764/309/2 772/310/2 773/307/2
f 765/311/2 772/310/2 764/309/2
f 765/311/2 771/312/2 772/310/2
f 766/313/2 771/312/2 765/311/2
f 766/313/2 770/314/2 771/312/2
f 767/315/2 770/314/2 766/313/2
f 767/315/2 769/316/2 770/314/2
f 768/317/2 769/316/2 767/315/2
f 830/318/2 828/320/2 829/319/2
f 830/318/2 839/321/2 828/320/2
f 839/321/2 840/322/2 828/320/2
f 840/322/2 838/323/2 828/320/2
f 830/318/2 842/324/2 839/321/2
f 841/325/2 838/323/2 840/322/2
f 830/318/2 841/325/2 842/324/2
f 830/318/2 838/323/2 841/325/2
f 830/318/2 837/326/2 838/323/2
f 830/318/2 836/327/2 837/326/2
f 831/328/2 836/327/2 830/318/2
f 832/329/2 836/327/2 831/328/2
f 833/330/2 835/331/2 832/329/2
f 835/331/2 836/327/2 832/329/2
f 833/330/2 834/332/2 835/331/2
f 448/333/2 446/335/2 447/334/2
f 449/336/2 446/335/2 448/333/2
f 450/337/2 446/335/2 449/336/2
f 450/337/2 445/338/2 446/335/2
f 451/339/2 445/338/2 450/337/2
f 451/339/2 444/340/2 445/338/2
f 452/341/2 444/340/2 451/339/2
f 453/342/2 444/340/2 452/341/2
f 453/342/2 443/343/2 444/340/2
f 454/344/2 443/343/2 453/342/2
f 455/345/2 443/343/2 454/344/2
f 455/345/2 442/346/2 443/343/2
f 456/347/2 442/346/2 455/345/2
f 457/348/2 442/346/2 456/347/2
f 457/348/2 441/349/2 442/346/2
f 458/350/2 441/349/2 457/348/2
f 459/351/2 441/349/2 458/350/2
f 459/351/2 440/352/2 441/349/2
f 460/353/2 461/354/2 459/351/2
f 461/354/2 462/355/2 459/351/2
f 462/355/2 463/356/2 459/351/2
f 463/356/2 464/357/2 459/351/2
f 464/357/2 465/358/2 459/351/2
f 465/358/2 466/359/2 459/351/2
f 466/359/2 467/360/2 459/351/2
f 467/360/2 468/361/2 459/351/2
f 468/361/2 469/362/2 459/351/2
f 469/362/2 470/363/2 459/351/2
f 470/363/2 471/364/2 459/351/2
f 471/364/2 440/352/2 459/351/2
f 471/364/2 472/365/2 440/352/2
f 472/365/2 439/366/2 440/352/2
f 473/367/2 439/366/2 472/365/2
f 474/368/2 439/366/2 473/367/2
f 475/369/2 439/366/2 474/368/2
f 475/369/2 438/370/2 439/366/2
f 476/371/2 438/370/2 475/369/2
f 477/372/2 438/370/2 476/371/2
f 478/373/2 438/370/2 477/372/2
f 478/373/2 437/374/2 438/370/2
f 479/375/2 437/374/2 478/373/2
f 480/376/2 437/374/2 479/375/2
f 480/376/2 436/377/2 437/374/2
f 481/378/2 436/377/2 480/376/2
f 482/379/2 436/377/2 481/378/2
f 482/379/2 435/380/2 436/377/2
f 483/381/2 435/380/2 482/379/2
f 484/382/2 435/380/2 483/381/2
f 484/382/2 434/383/2 435/380/2
f 485/384/2 434/383/2 484/382/2
f 486/385/2 434/383/2 485/384/2
f 486/385/2 433/386/2 434/383/2
f 487/387/2 433/386/2 486/385/2
f 488/388/2 433/386/2 487/387/2
f 488/388/2 432/389/2 433/386/2
f 489/390/2 432/389/2 488/388/2
f 490/391/2 432/389/2 489/390/2
f 490/391/2 431/392/2 432/389/2
f 491/393/2 431/392/2 490/391/2
f 492/394/2 431/392/2 491/393/2
f 493/395/2 431/392/2 492/394/2
f 493/395/2 430/396/2 431/392/2
f 494/397/2 430/396/2 493/395/2
f 495/398/2 430/396/2 494/397/2
f 495/398/2 429/399/2 430/396/2
f 496/400/2 429/399/2 495/398/2
f 497/401/2 429/399/2 496/400/2
f 497/401/2 428/402/2 429/399/2
f 498/403/2 428/402/2 497/401/2
f 498/403/2 427/404/2 428/402/2
f 499/405/2 427/404/2 498/403/2
f 499/405/2 426/406/2 427/404/2
f 500/407/2 426/406/2 499/405/2
f 501/408/2 426/406/2 500/407/2
f 501/408/2 425/409/2 426/406/2
f 502/410/2 425/409/2 501/408/2
f 502/410/2 424/411/2 425/409/2
f 503/412/2 424/411/2 502/410/2
f 503/412/2 423/413/2 424/411/2
f 504/414/2 423/413/2 503/412/2
f 505/415/2 423/413/2 504/414/2
f 505/415/2 422/416/2 423/413/2
f 505/415/2 510/417/2 422/416/2
f 506/418/2 510/417/2 505/415/2
f 507/419/2 510/417/2 506/418/2
f 508/420/2 510/417/2 507/419/2
f 509/421/2 510/417/2 508/420/2
f 78/405/3 79/407/3 500/407/3 499/405/3
f 369/302/4 370/304/4 791/304/4 790/302/4
f 279/201/5 280/199/5 701/199/5 700/201/5
f 123/98/6 124/96/6 545/96/6 544/98/6
f 79/407/7 80/408/7 501/408/7 500/407/7
f 244/196/8 245/202/8 666/202/8 665/196/8
f 199/97/9 200/99/9 621/99/9 620/97/9
f 372/305/10 373/303/10 794/303/10 793/305/10
f 341/298/11 342/306/11 763/306/11 762/298/11
f 200/99/12 201/100/12 622/100/12 621/99/12
f 4/409/13 5/406/13 426/406/13 425/409/13
f 257/203/14 258/197/14 679/197/14 678/203/14
f 80/408/15 81/410/15 502/410/15 501/408/15
f 271/200/16 272/204/16 693/204/16 692/200/16
f 352/307/17 353/299/17 774/299/17 773/307/17
f 122/101/18 123/98/18 544/98/18 543/101/18
f 370/304/19 371/308/19 792/308/19 791/304/19
f 201/100/20 202/102/20 623/102/20 622/100/20
f 3/411/21 4/409/21 425/409/21 424/411/21
f 278/205/22 279/201/22 700/201/22 699/205/22
f 81/410/23 82/412/23 503/412/23 502/410/23
f 272/204/24 273/206/24 694/206/24 693/204/24
f 202/102/25 203/103/25 624/103/25 623/102/25
f 371/308/26 372/305/26 793/305/26 792/308/26
f 2/413/27 3/411/27 424/411/27 423/413/27
f 342/306/28 343/309/28 764/309/28 763/306/28
f 277/207/29 278/205/29 699/205/29 698/207/29
f 121/104/30 122/101/30 543/101/30 542/104/30
f 82/412/31 83/414/31 504/414/31 503/412/31
f 273/206/4 274/208/4 695/208/4 694/206/4
f 203/103/32 204/105/32 625/105/32 624/103/32
f 91/2/33 92/1/33 513/1/33 512/2/33
f 83/414/34 84/415/34 505/415/34 504/414/34
f 351/310/35 352/307/35 773/307/35 772/310/35
f 343/309/36 344/311/36 765/311/36 764/309/36
f 276/209/10 277/207/10 698/207/10 697/209/10
f 120/106/37 121/104/37 542/104/37 541/106/37
f 90/3/38 91/2/38 512/2/38 511/3/38
f 245/202/11 246/210/11 667/210/11 666/202/11
f 204/105/39 205/107/39 626/107/39 625/105/39
f 1/416/38 2/413/38 423/413/38 422/416/38
f 97/4/40 90/3/40 511/3/40 518/4/40
f 350/312/41 351/310/41 772/310/41 771/312/41
f 205/107/42 206/108/42 627/108/42 626/107/42
f 92/1/43 93/5/43 514/5/43 513/1/43
f 89/417/40 1/416/40 422/416/40 510/417/40
f 344/311/44 345/313/44 766/313/44 765/311/44
f 256/211/17 257/203/17 678/203/17 677/211/17
f 84/415/45 85/418/45 506/418/45 505/415/45
f 274/208/19 275/212/19 696/212/19 695/208/19
f 93/5/33 94/6/33 515/6/33 514/5/33
f 119/109/46 120/106/46 541/106/46 540/109/46
f 85/418/47 86/419/47 507/419/47 506/418/47
f 349/314/48 350/312/48 771/312/48 770/314/48
f 206/108/49 207/110/49 628/110/49 627/108/49
f 345/313/50 346/315/50 767/315/50 766/313/50
f 275/212/26 276/209/26 697/209/26 696/212/26
f 96/7/43 97/4/43 518/4/43 517/7/43
f 86/419/51 87/420/51 508/420/51 507/419/51
f 207/110/52 208/111/52 629/111/52 628/110/52
f 94/6/43 95/8/43 516/8/43 515/6/43
f 246/210/28 247/213/28 668/213/28 667/210/28
f 95/8/40 96/7/40 517/7/40 516/8/40
f 87/420/33 88/421/33 509/421/33 508/420/33
f 348/316/53 349/314/53 770/314/53 769/316/53
f 99/10/54 100/9/54 521/9/54 520/10/54
f 88/421/43 89/417/43 510/417/43 509/421/43
f 346/315/55 347/317/55 768/317/55 767/315/55
f 118/112/56 119/109/56 540/109/56 539/112/56
f 347/317/57 348/316/57 769/316/57 768/317/57
f 255/214/35 256/211/35 677/211/35 676/214/35
f 208/111/58 209/113/58 630/113/58 629/111/58
f 98/11/38 99/10/38 520/10/38 519/11/38
f 408/319/59 409/318/59 830/318/59 829/319/59
f 247/213/36 248/215/36 669/215/36 668/213/36
f 209/113/60 210/114/60 631/114/60 630/113/60
f 407/320/38 408/319/38 829/319/38 828/320/38
f 254/216/41 255/214/41 676/214/41 675/216/41
f 210/114/61 211/115/61 632/115/61 631/114/61
f 105/13/62 98/11/62 519/11/62 526/13/62
f 248/215/44 249/217/44 670/217/44 669/215/44
f 418/321/43 419/322/43 840/322/43 839/321/43
f 108/14/63 106/12/63 527/12/63 529/14/63
f 117/116/64 118/112/64 539/112/64 538/116/64
f 106/12/65 107/15/65 528/15/65 527/12/65
f 253/218/48 254/216/48 675/216/48 674/218/48
f 211/115/66 212/117/66 633/117/66 632/115/66
f 417/323/40 407/320/40 828/320/40 838/323/40
f 249/217/50 250/219/50 671/219/50 670/217/50
f 212/117/67 213/118/67 634/118/67 633/117/67
f 421/324/68 418/321/68 839/321/68 842/324/68
f 419/322/33 420/325/33 841/325/33 840/322/33
f 252/220/53 253/218/53 674/218/53 673/220/53
f 107/15/38 108/14/38 529/14/38 528/15/38
f 250/219/55 251/221/55 672/221/55 671/219/55
f 213/118/38 214/83/38 635/83/38 634/118/38
f 102/16/43 103/17/43 524/17/43 523/16/43
f 251/221/57 252/220/57 673/220/57 672/221/57
f 420/325/38 421/324/38 842/324/38 841/325/38
f 323/223/69 324/222/69 745/222/69 744/223/69
f 116/119/70 117/116/70 538/116/70 537/119/70
f 100/9/43 101/18/43 522/18/43 521/9/43
f 322/224/71 323/223/71 744/223/71 743/224/71
f 101/18/72 102/16/72 523/16/72 522/18/72
f 416/326/38 417/323/38 838/323/38 837/326/38
f 115/120/73 116/119/73 537/119/73 536/120/73
f 103/17/74 104/19/74 525/19/74 524/17/74
f 321/225/75 322/224/75 743/224/75 742/225/75
f 104/19/43 105/13/43 526/13/43 525/19/43
f 415/327/40 416/326/40 837/326/40 836/327/40
f 324/222/76 325/226/76 746/226/76 745/222/76
f 114/121/77 115/120/77 536/120/77 535/121/77
f 160/21/33 109/20/33 530/20/33 581/21/33
f 409/318/33 410/328/33 831/328/33 830/318/33
f 113/122/78 114/121/78 535/121/78 534/122/78
f 410/328/43 411/329/43 832/329/43 831/328/43
f 320/227/79 321/225/79 742/225/79 741/227/79
f 325/226/80 326/228/80 747/228/80 746/226/80
f 112/123/81 113/122/81 534/122/81 533/123/81
f 159/23/38 160/21/38 581/21/38 580/23/38
f 411/329/33 412/330/33 833/330/33 832/329/33
f 111/124/82 112/123/82 533/123/82 532/124/82
f 158/24/83 159/23/83 580/23/83 579/24/83
f 319/229/84 320/227/84 741/227/84 740/229/84
f 109/20/43 110/125/43 531/125/43 530/20/43
f 414/331/43 415/327/43 836/327/43 835/331/43
f 326/228/85 327/230/85 748/230/85 747/228/85
f 110/125/86 111/124/86 532/124/86 531/125/86
f 157/25/87 158/24/87 579/24/87 578/25/87
f 412/330/43 413/332/43 834/332/43 833/330/43
f 227/127/69 228/126/69 649/126/69 648/127/69
f 413/332/40 414/331/40 835/331/40 834/332/40
f 327/230/88 328/231/88 749/231/88 748/230/88
f 156/26/89 157/25/89 578/25/89 577/26/89
f 26/334/90 27/333/90 448/333/90 447/334/90
f 226/128/71 227/127/71 648/127/71 647/128/71
f 155/27/91 156/26/91 577/26/91 576/27/91
f 25/335/92 26/334/92 447/334/92 446/335/92
f 318/232/93 319/229/93 740/229/93 739/232/93
f 225/129/75 226/128/75 647/128/75 646/129/75
f 27/333/94 28/336/94 449/336/94 448/333/94
f 328/231/95 329/233/95 750/233/95 749/231/95
f 228/126/76 229/130/76 650/130/76 649/126/76
f 154/28/96 155/27/96 576/27/96 575/28/96
f 28/336/97 29/337/97 450/337/97 449/336/97
f 153/29/98 154/28/98 575/28/98 574/29/98
f 224/131/79 225/129/79 646/129/79 645/131/79
f 229/130/80 230/132/80 651/132/80 650/130/80
f 152/30/99 153/29/99 574/29/99 573/30/99
f 24/338/100 25/335/100 446/335/100 445/338/100
f 317/235/101 318/232/101 739/232/101 738/235/101
f 161/22/43 162/31/43 583/31/43 582/22/43
f 29/337/102 30/339/102 451/339/102 450/337/102
f 394/236/103 395/234/103 816/234/103 815/236/103
f 223/133/84 224/131/84 645/131/84 644/133/84
f 395/234/104 396/237/104 817/237/104 816/234/104
f 230/132/85 231/134/85 652/134/85 651/132/85
f 151/32/105 152/30/105 573/30/105 572/32/105
f 23/340/106 24/338/106 445/338/106 444/340/106
f 30/339/107 31/341/107 452/341/107 451/339/107
f 231/134/88 232/135/88 653/135/88 652/134/88
f 187/33/40 161/22/40 582/22/40 608/33/40
f 393/238/108 394/236/108 815/236/108 814/238/108
f 162/31/109 163/34/109 584/34/109 583/31/109
f 31/341/110 32/342/110 453/342/110 452/341/110
f 396/237/111 397/239/111 818/239/111 817/237/111
f 222/136/93 223/133/93 644/133/93 643/136/93
f 163/34/112 164/35/112 585/35/112 584/34/112
f 329/233/113 330/240/113 751/240/113 750/233/113
f 232/135/95 233/137/95 654/137/95 653/135/95
f 22/343/114 23/340/114 444/340/114 443/343/114
f 32/342/115 33/344/115 454/344/115 453/342/115
f 150/36/116 151/32/116 572/32/116 571/36/116
f 316/241/117 317/235/117 738/235/117 737/241/117
f 164/35/118 165/37/118 586/37/118 585/35/118
f 33/344/119 34/345/119 455/345/119 454/344/119
f 392/242/120 393/238/120 814/238/120 813/242/120
f 221/139/101 222/136/101 643/136/101 642/139/101
f 165/37/121 166/38/121 587/38/121 586/37/121
f 397/239/122 398/243/122 819/243/122 818/239/122
f 21/346/123 22/343/123 443/343/123 442/346/123
f 298/140/103 299/138/103 720/138/103 719/140/103
f 166/38/124 167/39/124 588/39/124 587/38/124
f 34/345/125 35/347/125 456/347/125 455/345/125
f 299/138/104 300/141/104 721/141/104 720/138/104
f 391/244/126 392/242/126 813/242/126 812/244/126
f 167/39/127 168/40/127 589/40/127 588/39/127
f 35/347/128 36/348/128 457/348/128 456/347/128
f 398/243/129 399/245/129 820/245/129 819/243/129
f 297/142/108 298/140/108 719/140/108 718/142/108
f 300/141/111 301/143/111 722/143/111 721/141/111
f 149/41/130 150/36/130 571/36/130 570/41/130
f 20/349/131 21/346/131 442/346/131 441/349/131
f 390/246/132 391/244/132 812/244/132 811/246/132
f 168/40/133 169/42/133 590/42/133 589/40/133
f 36/348/134 37/350/134 458/350/134 457/348/134
f 399/245/135 400/247/135 821/247/135 820/245/135
f 233/137/113 234/144/113 655/144/113 654/137/113
f 169/42/136 170/43/136 591/43/136 590/42/136
f 37/350/137 38/351/137 459/351/137 458/350/137
f 330/240/138 331/248/138 752/248/138 751/240/138
f 220/145/117 221/139/117 642/139/117 641/145/117
f 148/44/139 149/41/139 570/41/139 569/44/139
f 19/352/140 20/349/140 441/349/140 440/352/140
f 315/249/141 316/241/141 737/241/141 736/249/141
f 296/146/120 297/142/120 718/142/120 717/146/120
f 170/43/142 171/45/142 592/45/142 591/43/142
f 38/351/33 39/353/33 460/353/33 459/351/33
f 301/143/122 302/147/122 723/147/122 722/143/122
f 39/353/143 40/354/143 461/354/143 460/353/143
f 389/250/144 390/246/144 811/246/144 810/250/144
f 171/45/145 172/46/145 593/46/145 592/45/145
f 400/247/146 401/251/146 822/251/146 821/247/146
f 40/354/147 41/355/147 462/355/147 461/354/147
f 295/148/126 296/146/126 717/146/126 716/148/126
f 302/147/129 303/149/129 724/149/129 723/147/129
f 147/47/148 148/44/148 569/44/148 568/47/148
f 41/355/149 42/356/149 463/356/149 462/355/149
f 388/252/150 389/250/150 810/250/150 809/252/150
f 172/46/151 173/48/151 594/48/151 593/46/151
f 401/251/152 402/253/152 823/253/152 822/251/152
f 42/356/153 43/357/153 464/357/153 463/356/153
f 294/150/132 295/148/132 716/148/132 715/150/132
f 173/48/154 174/49/154 595/49/154 594/48/154
f 331/248/155 332/254/155 753/254/155 752/248/155
f 303/149/135 304/151/135 725/151/135 724/149/135
f 43/357/156 44/358/156 465/358/156 464/357/156
f 234/144/138 235/152/138 656/152/138 655/144/138
f 146/50/157 147/47/157 568/47/157 567/50/157
f 44/358/158 45/359/158 466/359/158 465/358/158
f 314/255/159 315/249/159 736/249/159 735/255/159
f 174/49/160 175/51/160 596/51/160 595/49/160
f 45/359/161 46/360/161 467/360/161 466/359/161
f 387/256/162 388/252/162 809/252/162 808/256/162
f 219/153/141 220/145/141 641/145/141 640/153/141
f 402/253/163 403/257/163 824/257/163 823/253/163
f 145/52/164 146/50/164 567/50/164 566/52/164
f 46/360/165 47/361/165 468/361/165 467/360/165
f 293/154/144 294/150/144 715/150/144 714/154/144
f 175/51/166 176/53/166 597/53/166 596/51/166
f 332/254/167 333/258/167 754/258/167 753/254/167
f 304/151/146 305/155/146 726/155/146 725/151/146
f 47/361/168 48/362/168 469/362/168 468/361/168
f 144/54/169 145/52/169 566/52/169 565/54/169
f 48/362/170 49/363/170 470/363/170 469/362/170
f 313/259/171 314/255/171 735/255/171 734/259/171
f 292/156/150 293/154/150 714/154/150 713/156/150
f 176/53/172 177/55/172 598/55/172 597/53/172
f 305/155/152 306/157/152 727/157/152 726/155/152
f 49/363/173 50/364/173 471/364/173 470/363/173
f 386/260/174 387/256/174 808/256/174 807/260/174
f 403/257/175 404/261/175 825/261/175 824/257/175
f 235/152/155 236/158/155 657/158/155 656/152/155
f 143/56/176 144/54/176 565/54/176 564/56/176
f 177/55/177 178/57/177 599/57/177 598/55/177
f 50/364/178 51/365/178 472/365/178 471/364/178
f 385/262/179 386/260/179 807/260/179 806/262/179
f 218/159/159 219/153/159 640/153/159 639/159/159
f 404/261/180 405/263/180 826/263/180 825/261/180
f 142/58/181 143/56/181 564/56/181 563/58/181
f 18/366/182 19/352/182 440/352/182 439/366/182
f 291/160/162 292/156/162 713/156/162 712/160/162
f 178/57/183 179/59/183 600/59/183 599/57/183
f 51/365/184 52/367/184 473/367/184 472/365/184
f 333/258/185 334/264/185 755/264/185 754/258/185
f 306/157/163 307/161/163 728/161/163 727/157/163
f 52/367/186 53/368/186 474/368/186 473/367/186
f 236/158/167 237/162/167 658/162/167 657/158/167
f 141/60/187 142/58/187 563/58/187 562/60/187
f 312/265/188 313/259/188 734/259/188 733/265/188
f 179/59/189 180/61/189 601/61/189 600/59/189
f 53/368/190 54/369/190 475/369/190 474/368/190
f 384/266/191 385/262/191 806/262/191 805/266/191
f 217/163/171 218/159/171 639/159/171 638/163/171
f 405/263/192 406/267/192 827/267/192 826/263/192
f 140/62/193 141/60/193 562/60/193 561/62/193
f 17/370/194 18/366/194 439/366/194 438/370/194
f 290/164/174 291/160/174 712/160/174 711/164/174
f 180/61/195 181/63/195 602/63/195 601/61/195
f 54/369/196 55/371/196 476/371/196 475/369/196
f 334/264/197 335/268/197 756/268/197 755/264/197
f 307/161/175 308/165/175 729/165/175 728/161/175
f 181/63/198 182/64/198 603/64/198 602/63/198
f 55/371/199 56/372/199 477/372/199 476/371/199
f 311/269/200 312/265/200 733/265/200 732/269/200
f 289/166/179 290/164/179 711/164/179 710/166/179
f 56/372/201 57/373/201 478/373/201 477/372/201
f 308/165/180 309/167/180 730/167/180 729/165/180
f 139/65/202 140/62/202 561/62/202 560/65/202
f 383/270/203 384/266/203 805/266/203 804/270/203
f 182/64/204 183/66/204 604/66/204 603/64/204
f 406/267/205 359/271/205 780/271/205 827/267/205
f 237/162/185 238/168/185 659/168/185 658/162/185
f 16/374/206 17/370/206 438/370/206 437/374/206
f 57/373/207 58/375/207 479/375/207 478/373/207
f 335/268/208 336/272/208 757/272/208 756/268/208
f 138/67/209 139/65/209 560/65/209 559/67/209
f 216/169/188 217/163/188 638/163/188 637/169/188
f 183/66/210 184/68/210 605/68/210 604/66/210
f 58/375/211 59/376/211 480/376/211 479/375/211
f 382/273/212 383/270/212 804/270/212 803/273/212
f 288/170/191 289/166/191 710/166/191 709/170/191
f 184/68/213 185/69/213 606/69/213 605/68/213
f 359/271/214 360/274/214 781/274/214 780/271/214
f 309/167/192 310/171/192 731/171/192 730/167/192
f 15/377/215 16/374/215 437/374/215 436/377/215
f 185/69/216 186/70/216 607/70/216 606/69/216
f 59/376/217 60/378/217 481/378/217 480/376/217
f 238/168/197 239/172/197 660/172/197 659/168/197
f 358/275/218 311/269/218 732/269/218 779/275/218
f 60/378/219 61/379/219 482/379/219 481/378/219
f 381/276/220 382/273/220 803/273/220 802/276/220
f 215/173/200 216/169/200 637/169/200 636/173/200
f 360/274/221 361/277/221 782/277/221 781/274/221
f 186/70/38 187/33/38 608/33/38 607/70/38
f 14/380/18 15/377/18 436/377/18 435/380/18
f 287/174/203 288/170/203 709/170/203 708/174/203
f 61/379/222 62/381/222 483/381/222 482/379/222
f 336/272/223 337/278/223 758/278/223 757/272/223
f 310/171/205 263/175/205 684/175/205 731/171/205
f 137/72/224 138/67/224 559/67/224 558/72/224
f 62/381/225 63/382/225 484/382/225 483/381/225
f 239/172/208 240/176/208 661/176/208 660/172/208
f 357/279/226 358/275/226 779/275/226 778/279/226
f 136/73/227 137/72/227 558/72/227 557/73/227
f 13/383/228 14/380/228 435/380/228 434/383/228
f 380/280/229 381/276/229 802/276/229 801/280/229
f 286/177/212 287/174/212 708/174/212 707/177/212
f 135/74/230 136/73/230 557/73/230 556/74/230
f 63/382/231 64/384/231 485/384/231 484/382/231
f 361/277/232 362/281/232 783/281/232 782/277/232
f 263/175/214 264/178/214 685/178/214 684/175/214
f 134/75/40 135/74/40 556/74/40 555/75/40
f 64/384/233 65/385/233 486/385/233 485/384/233
f 337/278/234 338/282/234 759/282/234 758/278/234
f 262/179/218 215/173/218 636/173/218 683/179/218
f 133/76/235 134/75/235 555/75/235 554/76/235
f 12/386/236 13/383/236 434/383/236 433/386/236
f 356/283/237 357/279/237 778/279/237 777/283/237
f 285/180/220 286/177/220 707/177/220 706/180/220
f 132/77/238 133/76/238 554/76/238 553/77/238
f 65/385/239 66/387/239 487/387/239 486/385/239
f 362/281/240 363/284/240 784/284/240 783/281/240
f 264/178/221 265/181/221 686/181/221 685/178/221
f 131/78/241 132/77/241 553/77/241 552/78/241
f 66/387/242 67/388/242 488/388/242 487/387/242
f 240/176/223 241/182/223 662/182/223 661/176/223
f 379/285/243 380/280/243 801/280/243 800/285/243
f 130/79/244 131/78/244 552/78/244 551/79/244
f 363/284/245 364/286/245 785/286/245 784/284/245
f 11/389/246 12/386/246 433/386/246 432/389/246
f 261/183/226 262/179/226 683/179/226 682/183/226
f 129/80/247 130/79/247 551/79/247 550/80/247
f 67/388/248 68/390/248 489/390/248 488/388/248
f 188/71/43 189/81/43 610/81/43 609/71/43
f 378/287/249 379/285/249 800/285/249 799/287/249
f 284/184/229 285/180/229 706/180/229 705/184/229
f 68/390/250 69/391/250 490/391/250 489/390/250
f 338/282/251 339/288/251 760/288/251 759/282/251
f 265/181/232 266/185/232 687/185/232 686/181/232
f 128/82/252 129/80/252 550/80/252 549/82/252
f 241/182/234 242/186/234 663/186/234 662/182/234
f 10/392/253 11/389/253 432/389/253 431/392/253
f 355/289/254 356/283/254 777/283/254 776/289/254
f 214/83/40 188/71/40 609/71/40 635/83/40
f 69/391/255 70/393/255 491/393/255 490/391/255
f 364/286/256 365/290/256 786/290/256 785/286/256
f 189/81/257 190/84/257 611/84/257 610/81/257
f 260/187/237 261/183/237 682/183/237 681/187/237
f 70/393/258 71/394/258 492/394/258 491/393/258
f 266/185/240 267/188/240 688/188/240 687/185/240
f 190/84/259 191/85/259 612/85/259 611/84/259
f 377/291/260 378/287/260 799/287/260 798/291/260
f 71/394/261 72/395/261 493/395/261 492/394/261
f 339/288/262 340/292/262 761/292/262 760/288/262
f 191/85/263 192/86/263 613/86/263 612/85/263
f 283/189/243 284/184/243 705/184/243 704/189/243
f 267/188/245 268/190/245 689/190/245 688/188/245
f 9/396/264 10/392/264 431/392/264 430/396/264
f 354/293/265 355/289/265 776/289/265 775/293/265
f 127/87/266 128/82/266 549/82/266 548/87/266
f 72/395/267 73/397/267 494/397/267 493/395/267
f 365/290/268 366/294/268 787/294/268 786/290/268
f 192/86/269 193/88/269 614/88/269 613/86/269
f 282/191/249 283/189/249 704/189/249 703/191/249
f 73/397/270 74/398/270 495/398/270 494/397/270
f 242/186/251 243/192/251 664/192/251 663/186/251
f 193/88/271 194/89/271 615/89/271 614/88/271
f 376/295/272 377/291/272 798/291/272 797/295/272
f 366/294/273 367/296/273 788/296/273 787/294/273
f 8/399/274 9/396/274 430/396/274 429/399/274
f 259/193/254 260/187/254 681/187/254 680/193/254
f 126/90/275 127/87/275 548/87/275 547/90/275
f 74/398/276 75/400/276 496/400/276 495/398/276
f 268/190/256 269/194/256 690/194/256 689/190/256
f 194/89/277 195/91/277 616/91/277 615/89/277
f 375/297/5 376/295/5 797/295/5 796/297/5
f 75/400/278 76/401/278 497/401/278 496/400/278
f 340/292/8 341/298/8 762/298/8 761/292/8
f 195/91/279 196/92/279 617/92/279 616/91/279
f 281/195/260 282/191/260 703/191/260 702/195/260
f 243/192/262 244/196/262 665/196/262 664/192/262
f 7/402/280 8/399/280 429/399/280 428/402/280
f 353/299/14 354/293/14 775/293/14 774/299/14
f 125/93/281 126/90/281 547/90/281 546/93/281
f 76/401/282 77/403/282 498/403/282 497/401/282
f 367/296/16 368/300/16 789/300/16 788/296/16
f 196/92/283 197/94/283 618/94/283 617/92/283
f 258/197/265 259/193/265 680/193/265 679/197/265
f 269/194/268 270/198/268 691/198/268 690/194/268
f 197/94/284 198/95/284 619/95/284 618/94/284
f 6/404/285 7/402/285 428/402/285 427/404/285
f 374/301/22 375/297/22 796/297/22 795/301/22
f 77/403/286 78/405/286 499/405/286 498/403/286
f 368/300/24 369/302/24 790/302/24 789/300/24
f 280/199/272 281/195/272 702/195/272 701/199/272
f 124/96/287 125/93/287 546/93/287 545/96/287
f 270/198/273 271/200/273 692/200/273 691/198/273
f 198/95/288 199/97/288 620/97/288 619/95/288
f 5/406/289 6/404/289 427/404/289 426/406/289
f 373/303/29 374/301/29 795/301/29 794/303/29
